<?xml version="1.0" encoding="UTF-8"?>
<svg version="1.1" xmlns="http://www.w3.org/2000/svg" width="409" height="435">
<path d="M0 0 C134.97 0 269.94 0 409 0 C409 143.55 409 287.1 409 435 C274.03 435 139.06 435 0 435 C0 291.45 0 147.9 0 0 Z " fill="#000101" transform="translate(0,0)"/>
<path d="M0 0 C1.21623047 -0.00128906 2.43246094 -0.00257812 3.68554688 -0.00390625 C5.60270508 0.00189453 5.60270508 0.00189453 7.55859375 0.0078125 C8.80962891 0.00394531 10.06066406 0.00007812 11.34960938 -0.00390625 C21.52923246 0.00680351 31.05475209 0.98609605 40.99609375 3.1328125 C41.94983887 3.33197266 41.94983887 3.33197266 42.92285156 3.53515625 C59.59708892 7.01955536 75.07835231 10.99817561 90.13671875 19.13183594 C91.90198204 20.08214837 93.68306775 21.00289594 95.46484375 21.921875 C106.84916478 27.85798525 117.14353212 34.92234448 126.99609375 43.1328125 C128.10807137 44.0455748 129.22005063 44.9583351 130.33203125 45.87109375 C131.49155446 46.83252702 132.65041464 47.7947605 133.80859375 48.7578125 C134.34798584 49.2010083 134.88737793 49.6442041 135.44311523 50.10083008 C139.0842317 53.15968448 142.01704369 56.42577967 144.99609375 60.1328125 C145.73859375 60.8753125 146.48109375 61.6178125 147.24609375 62.3828125 C164.54347071 79.68018946 177.21969824 100.7140091 186.93359375 123.0703125 C187.48225098 124.32980713 187.48225098 124.32980713 188.04199219 125.61474609 C190.24384204 130.85160601 191.91534718 136.08721095 193.31787109 141.59204102 C194.19469986 144.87683472 195.29872097 148.05911613 196.4453125 151.2578125 C196.99609375 153.1328125 196.99609375 153.1328125 196.99609375 156.1328125 C168.94609375 156.1328125 140.89609375 156.1328125 111.99609375 156.1328125 C107.99609375 146.1328125 107.99609375 146.1328125 107.99609375 144.1328125 C107.00609375 144.1328125 106.01609375 144.1328125 104.99609375 144.1328125 C103.43359375 141.7578125 103.43359375 141.7578125 101.99609375 139.1328125 C101.33609375 138.4728125 100.67609375 137.8128125 99.99609375 137.1328125 C99.99609375 135.8128125 99.99609375 134.4928125 99.99609375 133.1328125 C99.39796875 132.9265625 98.79984375 132.7203125 98.18359375 132.5078125 C95.99609375 131.1328125 95.99609375 131.1328125 94.68359375 128.4453125 C91.57353682 122.34038593 86.83777952 118.54046253 80.99609375 115.1328125 C77.99609375 111.7190194 77.99609375 111.7190194 77.99609375 109.1328125 C77.35671875 109.0090625 76.71734375 108.8853125 76.05859375 108.7578125 C75.37796875 108.5515625 74.69734375 108.3453125 73.99609375 108.1328125 C73.66609375 107.4728125 73.33609375 106.8128125 72.99609375 106.1328125 C71.33007629 105.40026713 69.66086838 104.67392375 67.97460938 103.98925781 C64.74808602 102.59258408 61.76911859 100.79414536 58.74609375 99.0078125 C54.04238505 96.2190951 54.04238505 96.2190951 48.99609375 94.1328125 C48.99609375 93.4728125 48.99609375 92.8128125 48.99609375 92.1328125 C47.98546875 92.0503125 46.97484375 91.9678125 45.93359375 91.8828125 C41.87617727 91.40294582 38.17509533 90.30557686 34.26953125 89.12109375 C25.73372617 86.72440245 17.50223949 86.46624427 8.68359375 86.5703125 C7.91673248 86.57424011 7.14987122 86.57816772 6.35977173 86.58221436 C-5.42423821 86.6672487 -16.0105936 87.68845722 -27.00390625 92.1328125 C-28.21949219 92.57882813 -29.43507812 93.02484375 -30.6875 93.484375 C-42.40545858 98.07914956 -52.61322717 104.80925604 -62.00390625 113.1328125 C-62.66390625 113.1328125 -63.32390625 113.1328125 -64.00390625 113.1328125 C-64.00390625 113.7928125 -64.00390625 114.4528125 -64.00390625 115.1328125 C-65.4375 116.47265625 -65.4375 116.47265625 -67.44140625 118.0703125 C-77.82030587 126.90615448 -85.9357981 138.52216694 -91.00390625 151.1328125 C-91.66390625 151.1328125 -92.32390625 151.1328125 -93.00390625 151.1328125 C-93.12121094 151.82761719 -93.23851563 152.52242187 -93.359375 153.23828125 C-94.07481036 156.4512364 -95.14837241 159.36792303 -96.31640625 162.4453125 C-104.87573249 186.03928135 -108.36312396 214.73266862 -101.00390625 239.1328125 C-100.81586426 239.80570313 -100.62782227 240.47859375 -100.43408203 241.171875 C-96.28336483 255.91236949 -90.03893401 270.14878622 -80.32519531 282.08032227 C-73.21231902 290.87243586 -73.21231902 290.87243586 -73.56640625 297.3828125 C-73.86612157 299.17283643 -74.1737483 300.96236997 -74.54345703 302.73925781 C-75.12688357 305.77208591 -75.54532595 308.81577171 -75.96875 311.875 C-76.64064085 316.69721994 -77.3309212 321.51516007 -78.06640625 326.328125 C-78.22238281 327.34922363 -78.37835938 328.37032227 -78.5390625 329.42236328 C-78.92975629 331.70045279 -79.40265746 333.90273817 -80.00390625 336.1328125 C-78.68390625 336.1328125 -77.36390625 336.1328125 -76.00390625 336.1328125 C-76.00390625 335.4728125 -76.00390625 334.8128125 -76.00390625 334.1328125 C-74.35841797 333.21048828 -74.35841797 333.21048828 -72.6796875 332.26953125 C-71.2252389 331.45316333 -69.77081302 330.63675494 -68.31640625 329.8203125 C-67.59517578 329.41619141 -66.87394531 329.01207031 -66.13085938 328.59570312 C-65.42509766 328.19931641 -64.71933594 327.80292969 -63.9921875 327.39453125 C-63.30334473 327.0082959 -62.61450195 326.62206055 -61.90478516 326.22412109 C-60.30255319 325.30426791 -58.7328452 324.32809937 -57.171875 323.33984375 C-55.00390625 322.1328125 -55.00390625 322.1328125 -52.00390625 322.1328125 C-52.00390625 321.4728125 -52.00390625 320.8128125 -52.00390625 320.1328125 C-48.78559269 318.17042619 -46.62056391 317.1328125 -42.81640625 317.1328125 C-38.5852448 318.24262534 -34.95723747 319.93699833 -31.01171875 321.796875 C-20.97384866 326.25525366 -10.83033604 327.99476456 -0.00390625 329.1328125 C-0.00390625 329.7928125 -0.00390625 330.4528125 -0.00390625 331.1328125 C1.11628906 331.1328125 2.23648438 331.1328125 3.390625 331.1328125 C8.59244792 331.1328125 13.79427083 331.1328125 18.99609375 331.1328125 C19.32609375 330.8028125 19.65609375 330.4728125 19.99609375 330.1328125 C22.64696454 329.89502675 25.27737498 329.71035515 27.93359375 329.5703125 C28.67544922 329.52712891 29.41730469 329.48394531 30.18164062 329.43945312 C35.46333627 329.13777876 40.70770728 329.1328125 45.99609375 329.1328125 C46.09921875 328.5140625 46.20234375 327.8953125 46.30859375 327.2578125 C46.99609375 325.1328125 46.99609375 325.1328125 49.99609375 323.1328125 C52.32808763 323.05376186 54.66441997 323.04482481 56.99609375 323.1328125 C57.32609375 322.1428125 57.65609375 321.1528125 57.99609375 320.1328125 C59.66276042 320.1328125 61.32942708 320.1328125 62.99609375 320.1328125 C62.99609375 319.4728125 62.99609375 318.8128125 62.99609375 318.1328125 C64.31609375 318.7928125 65.63609375 319.4528125 66.99609375 320.1328125 C65.19196732 323.39742223 64.16214682 325.02211045 60.99609375 327.1328125 C61.32609375 328.1228125 61.65609375 329.1128125 61.99609375 330.1328125 C63.74930645 328.40680483 65.49867446 326.67716953 67.24609375 324.9453125 C67.73722656 324.46255859 68.22835937 323.97980469 68.734375 323.48242188 C71.72130766 320.5154021 74.41740961 317.4705448 76.99609375 314.1328125 C77.7540625 313.19566406 78.51203125 312.25851562 79.29296875 311.29296875 C84.08009263 305.24808143 88.24648447 299.28042277 91.95385742 292.50830078 C94.75417997 287.42890662 97.90222372 282.64430589 101.23242188 277.89697266 C105.4036343 271.83622183 108.42414306 265.76643521 111.99609375 259.1328125 C140.04609375 259.1328125 168.09609375 259.1328125 196.99609375 259.1328125 C186.43775812 311.92449067 152.06743343 356.71369155 108.06103516 386.43994141 C91.30415568 397.46384444 72.46524479 405.4371693 52.99609375 410.1328125 C52.0004541 410.37402832 51.00481445 410.61524414 49.97900391 410.86376953 C20.28169535 417.78569859 -13.84956139 418.42731068 -42.66210938 407.00268555 C-44.88033777 406.17871268 -46.99566015 405.63712818 -49.31640625 405.1953125 C-56.28722271 403.80114921 -63.64511638 401.31220743 -70.00390625 398.1328125 C-70.00390625 397.4728125 -70.00390625 396.8128125 -70.00390625 396.1328125 C-71.98390625 395.8028125 -73.96390625 395.4728125 -76.00390625 395.1328125 C-76.00390625 394.4728125 -76.00390625 393.8128125 -76.00390625 393.1328125 C-76.68453125 393.0503125 -77.36515625 392.9678125 -78.06640625 392.8828125 C-80.6911661 392.21266105 -82.28194808 391.49167124 -84.56640625 390.1328125 C-87.68889685 388.08341528 -87.68889685 388.08341528 -90.25390625 387.6328125 C-92.7849379 386.9096606 -93.46810983 385.22149563 -95.00390625 383.1328125 C-96.27234375 382.3903125 -96.27234375 382.3903125 -97.56640625 381.6328125 C-100.28161833 379.96191276 -100.62961415 378.8813967 -102.00390625 376.1328125 C-103.32539452 375.75524442 -104.66226546 375.4309549 -106.00390625 375.1328125 C-109.25390625 373.1953125 -109.25390625 373.1953125 -112.00390625 371.1328125 C-112.00390625 370.4728125 -112.00390625 369.8128125 -112.00390625 369.1328125 C-112.86048828 368.76542969 -112.86048828 368.76542969 -113.734375 368.390625 C-120.32499865 364.73799021 -125.46856267 357.76101259 -130.328125 352.0859375 C-131.43952161 350.79060345 -132.56713986 349.50900228 -133.7109375 348.2421875 C-145.84704446 334.76371205 -145.84704446 334.76371205 -148.046875 327.859375 C-148.36269531 326.95960938 -148.67851562 326.05984375 -149.00390625 325.1328125 C-149.99390625 324.8028125 -150.98390625 324.4728125 -152.00390625 324.1328125 C-153.49834415 322.09438698 -154.79176303 320.11695812 -156.06640625 317.9453125 C-156.45417236 317.28893799 -156.84193848 316.63256348 -157.24145508 315.95629883 C-169.40311839 294.80019843 -177.18152291 271.97242703 -182.00390625 248.1328125 C-182.17051758 247.31490234 -182.33712891 246.49699219 -182.50878906 245.65429688 C-189.03032571 211.8719269 -187.31185574 171.22841466 -174.74072266 139.05639648 C-173.77489725 136.53494572 -172.95702851 133.96795709 -172.11669922 131.40258789 C-163.38649949 105.29089506 -146.26356709 74.28705207 -124.2734375 56.984375 C-121.84484947 55.38364275 -121.84484947 55.38364275 -121.50390625 53.0703125 C-121.00390625 51.1328125 -121.00390625 51.1328125 -118.94140625 49.8203125 C-117.97203125 49.2634375 -117.00265625 48.7065625 -116.00390625 48.1328125 C-113.88212462 46.31994927 -111.82357145 44.45192969 -109.7734375 42.55859375 C-108.00390625 41.1328125 -108.00390625 41.1328125 -106.00390625 41.1328125 C-106.00390625 40.4728125 -106.00390625 39.8128125 -106.00390625 39.1328125 C-104.61579871 38.15098034 -103.21800849 37.18029559 -101.77734375 36.27734375 C-99.96209821 35.10583066 -98.28014992 33.82219961 -96.56640625 32.5078125 C-93.16939024 30.04345936 -90.08159985 29.0482131 -86.00390625 28.1328125 C-86.00390625 27.4728125 -86.00390625 26.8128125 -86.00390625 26.1328125 C-83.09841743 24.09111765 -81.60248579 23.1328125 -78.00390625 23.1328125 C-78.00390625 22.4728125 -78.00390625 21.8128125 -78.00390625 21.1328125 C-77.22144531 20.86726563 -76.43898438 20.60171875 -75.6328125 20.328125 C-74.62089844 19.97492187 -73.60898438 19.62171875 -72.56640625 19.2578125 C-71.55707031 18.90976562 -70.54773438 18.56171875 -69.5078125 18.203125 C-66.86418874 17.39226157 -66.86418874 17.39226157 -66.00390625 15.1328125 C-63.98193359 14.29492187 -63.98193359 14.29492187 -61.33984375 13.4765625 C-60.38207031 13.17621094 -59.42429687 12.87585937 -58.4375 12.56640625 C-57.42816406 12.25832031 -56.41882813 11.95023438 -55.37890625 11.6328125 C-54.39277344 11.32472656 -53.40664062 11.01664063 -52.390625 10.69921875 C-44.76814046 8.32800527 -37.23987565 6.0821295 -29.37890625 4.6328125 C-28.69103027 4.50535645 -28.0031543 4.37790039 -27.29443359 4.24658203 C-21.70799188 3.22559833 -16.10360622 2.3578321 -10.48046875 1.5625 C-1.48351249 0.0015139 -1.48351249 0.0015139 0 0 Z " fill="#8AAFC2" transform="translate(199.00390625,9.8671875)"/>
<path d="M0 0 C5.17183223 0.40830254 9.03024687 2.36197899 13.53515625 4.74609375 C16.93433399 6.47531095 20.38487163 7.79495721 24 9 C24.639375 9.680625 25.27875 10.36125 25.9375 11.0625 C28.01426407 13.45645031 28.01426407 13.45645031 32 13 C32 13.99 32 14.98 32 16 C34.33214148 17.20628008 36.49642139 18.1654738 39 19 C39.99 19.99 39.99 19.99 41 21 C41.66 21.33 42.32 21.66 43 22 C43 22.66 43 23.32 43 24 C43.66 24 44.32 24 45 24 C45.53625 24.86625 46.0725 25.7325 46.625 26.625 C48.88336768 30.26252351 51.88606552 32.32411747 55.390625 34.703125 C56.18726563 35.34507813 56.18726563 35.34507813 57 36 C57 36.66 57 37.32 57 38 C57.598125 38.061875 58.19625 38.12375 58.8125 38.1875 C61.90339529 39.33554682 62.5880344 41.10547052 64 44 C64 44.66 64 45.32 64 46 C64.99 46 65.98 46 67 46 C67 46.99 67 47.98 67 49 C68.65 49.33 70.3 49.66 72 50 C71.67 50.99 71.34 51.98 71 53 C71.82892554 56.77277324 73.13340095 60.13340095 75.875 62.875 C79.30883357 66.30883357 80.96269606 70.63517788 83 75 C83.54527344 76.134375 84.09054687 77.26875 84.65234375 78.4375 C89 87.60338235 89 87.60338235 89 91 C89.66 91 90.32 91 91 91 C91.99 96.445 91.99 96.445 93 102 C92.34 102 91.68 102 91 102 C89.96210419 100.35666496 88.96432076 98.68756133 88 97 C87.34 96.34 86.68 95.68 86 95 C86 93.68 86 92.36 86 91 C85.1028125 90.690625 85.1028125 90.690625 84.1875 90.375 C82 89 82 89 80.6875 86.3125 C77.57744307 80.20757343 72.84168577 76.40765003 67 73 C64 69.5862069 64 69.5862069 64 67 C63.0409375 66.814375 63.0409375 66.814375 62.0625 66.625 C61.381875 66.41875 60.70125 66.2125 60 66 C59.67 65.34 59.34 64.68 59 64 C57.33398254 63.26745463 55.66477463 62.54111125 53.97851562 61.85644531 C50.75199227 60.45977158 47.77302484 58.66133286 44.75 56.875 C40.0462913 54.0862826 40.0462913 54.0862826 35 52 C35 51.34 35 50.68 35 50 C33.989375 49.9175 32.97875 49.835 31.9375 49.75 C27.88217103 49.2709789 24.18757444 48.17147518 20.28515625 46.984375 C12.41418333 44.76974903 4.8805868 44.38597475 -3.26123047 44.47851562 C-5.49947323 44.49999494 -7.73450861 44.47856406 -9.97265625 44.453125 C-18.82929378 44.43855337 -26.56507082 45.55106142 -35.04101562 48.14257812 C-38 49 -38 49 -41 49 C-40.33333333 47.66666667 -39.66666667 46.33333333 -39 45 C-38.731875 44.29875 -38.46375 43.5975 -38.1875 42.875 C-36.53839222 40.27114562 -34.92901331 39.78583284 -32 39 C-31.01 39.33 -30.02 39.66 -29 40 C-29 40.66 -29 41.32 -29 42 C-27.700625 41.814375 -26.40125 41.62875 -25.0625 41.4375 C-22.84765625 41.12109375 -22.84765625 41.12109375 -21 41 C-20.505 41.495 -20.505 41.495 -20 42 C-16.12507506 42.14622358 -12.72593323 42.06455235 -9 41 C-6.83323318 41 -4.66642144 41.0238139 -2.5 41.0625 C0.97347545 41.17508557 0.97347545 41.17508557 4 40 C5.55643549 39.98446183 7.11400687 40.03201313 8.66796875 40.12109375 C10.00698242 40.19360352 10.00698242 40.19360352 11.37304688 40.26757812 C12.76620117 40.35168945 12.76620117 40.35168945 14.1875 40.4375 C15.12787109 40.48970703 16.06824219 40.54191406 17.03710938 40.59570312 C19.35841501 40.72531918 21.67928409 40.86028181 24 41 C24 40.34 24 39.68 24 39 C25.65 39 27.3 39 29 39 C28.01 40.98 27.02 42.96 26 45 C26.99 45 27.98 45 29 45 C32 46 32 46 33 48 C35.45516759 48.85416577 37.94086878 49.47068248 40.45703125 50.12109375 C43.12905111 51.04460292 44.82053525 52.22830607 47 54 C48.31836295 54.69580267 49.64791086 55.37224433 51 56 C51.33 55.01 51.66 54.02 52 53 C52.66 53 53.32 53 54 53 C54.33 53.66 54.66 54.32 55 55 C55.66 55 56.32 55 57 55 C57.33 54.01 57.66 53.02 58 52 C59.29355827 50.62804426 60.62298702 49.28817344 62 48 C61.09066991 46.72390677 60.17217147 45.45434447 59.25 44.1875 C58.73953125 43.47980469 58.2290625 42.77210937 57.703125 42.04296875 C55.28346277 39.14048401 52.9543006 37.37240999 49.4375 36 C46.94786963 34.97861318 45.65891237 34.09546825 44 32 C44 31.34 44 30.68 44 30 C43.34 30 42.68 30 42 30 C42 29.01 42 28.02 42 27 C40.05860739 25.22964198 38.16676879 23.67880574 36.0625 22.125 C35.16398315 21.45138428 35.16398315 21.45138428 34.24731445 20.76416016 C29.68769247 17.39696047 25.07712272 14.5271092 20 12 C18.66488578 11.30951878 17.33030035 10.61801463 15.99609375 9.92578125 C14.5396559 9.17852979 13.08261933 8.43244418 11.625 7.6875 C10.92205811 7.3251123 10.21911621 6.96272461 9.49487305 6.58935547 C5.45043721 4.53838401 5.45043721 4.53838401 1 4 C0.34 3.34 -0.32 2.68 -1 2 C-0.67 1.34 -0.34 0.68 0 0 Z " fill="#0174A2" transform="translate(213,52)"/>
<path d="M0 0 C5.45361014 2.62941917 9.95266104 7.19920629 12 13 C12.75385076 19.28208971 11.07277019 24.56905734 8 30 C3.76009177 34.77953291 -0.24941311 37.09572453 -6.6875 37.5 C-12.04338865 37.45301852 -14.67376576 35.66367593 -18.37109375 31.9140625 C-22.80386428 26.70529137 -23.49899388 22.37014554 -23.28125 15.68359375 C-22.72237936 10.35103642 -21.06369108 6.67614734 -16.9375 3.125 C-11.48554274 -0.81896908 -6.61114485 -0.62303983 0 0 Z " fill="#B1BBC2" transform="translate(257,208)"/>
<path d="M0 0 C4.33174513 3.09410366 7.64360761 6.47734184 8.625 11.875 C9.33670916 18.73540959 8.69659064 24.18267911 4.625 29.875 C0.72774368 33.5773935 -3.1751317 36.13975389 -8.625 36.375 C-13.3247796 36.25111784 -16.10706551 34.72515162 -19.64453125 31.703125 C-23.85547127 27.25454728 -25.58054861 22.92673855 -25.8125 16.8125 C-25.5582091 11.10410774 -24.16305645 7.0091319 -20.4375 2.5625 C-14.43396025 -2.34948707 -7.21094669 -2.4036489 0 0 Z " fill="#6BA3BE" transform="translate(213.375,209.125)"/>
<path d="M0 0 C2.95099374 1.54526643 4.90314879 3.43581538 7 6 C7.61875 6.7425 8.2375 7.485 8.875 8.25 C11.16322571 13.84344061 11.61090994 19.03865756 9.8125 24.8125 C6.68382197 30.31465791 4.1190916 33.84698629 -2 36 C-8.88774802 36.93354601 -13.36286824 36.02652269 -19 32 C-21.49555411 29.92037157 -21.94102355 29.17692935 -23 26 C-23.6482505 17.63650589 -23.65380954 11.11759106 -19 4 C-13.94166345 -1.05833655 -6.71646086 -1.02303709 0 0 Z " fill="#0A88B3" transform="translate(165,208)"/>
<path d="M0 0 C5.45972782 2.89044414 9.47073011 5.92088882 13.4375 10.75 C15.75538758 12.60431006 18.1086184 12.67873538 21 13 C21 13.66 21 14.32 21 15 C22.32 15.33 23.64 15.66 25 16 C25 16.66 25 17.32 25 18 C25.87011719 18.17015625 25.87011719 18.17015625 26.7578125 18.34375 C29.19212234 19.05623093 30.79489445 20.06313994 32.875 21.5 C36.23790275 23.68525703 38.93667569 24.69525068 43 25 C43 25.66 43 26.32 43 27 C43.99 27 44.98 27 46 27 C46 27.66 46 28.32 46 29 C46.928125 29.28875 47.85625 29.5775 48.8125 29.875 C52 31 52 31 55 33 C56.73639957 33.39815531 58.48993982 33.72468332 60.25 34 C65.63985129 34.90896043 70.73954931 36.16461605 75.875 38.0625 C84.17404392 40.55221318 92.92227912 40.12445021 101.5 40.0625 C102.69109375 40.05798828 103.8821875 40.05347656 105.109375 40.04882812 C108.07296575 40.03698729 111.03645531 40.0199493 114 40 C116.02450921 40 118.02400526 40.59466775 120 41 C120 41.99 120 42.98 120 44 C118.69796631 43.99214478 118.69796631 43.99214478 117.36962891 43.98413086 C114.15299727 43.96710138 110.93638859 43.95455592 107.71972656 43.94506836 C106.32681523 43.9400357 104.9339092 43.93320902 103.54101562 43.92456055 C101.54038754 43.91244848 99.53972112 43.90729588 97.5390625 43.90234375 C96.33459473 43.89710693 95.13012695 43.89187012 93.88916016 43.88647461 C91.0586323 43.79912109 91.0586323 43.79912109 89 45 C89 44.34 89 43.68 89 43 C86.9617476 42.60686526 84.91914105 42.23626878 82.875 41.875 C81.73804688 41.66617188 80.60109375 41.45734375 79.4296875 41.2421875 C75.72969342 40.98091229 73.40335095 41.60348821 70 43 C70 42.34 70 41.68 70 41 C67.69 40.67 65.38 40.34 63 40 C63 39.34 63 38.68 63 38 C61.783125 37.9175 60.56625 37.835 59.3125 37.75 C55.12015016 37.24986002 53.26045335 35.67524378 50 33 C46.85961423 32.33568763 43.90191324 31.99694784 40.69140625 32.0078125 C38.25232366 31.93572139 36.30498954 31.81616361 34 31 C32.53468094 29.03179037 31.74377376 27.22655736 30.94921875 24.91015625 C29.7238995 22.44439035 28.5737696 21.87119861 26 21 C25.34 21.33 24.68 21.66 24 22 C23.01 21.34 22.02 20.68 21 20 C20.67 21.65 20.34 23.3 20 25 C20.99 24.67 21.98 24.34 23 24 C24.32 25.65 25.64 27.3 27 29 C26.67 29.66 26.34 30.32 26 31 C26.99 31 27.98 31 29 31 C29.2475 31.804375 29.495 32.60875 29.75 33.4375 C30.1625 34.283125 30.575 35.12875 31 36 C32.32148827 36.37756808 33.65835921 36.7018576 35 37 C35.99 37.845625 36.98 38.69125 38 39.5625 C40.87317408 42.42039508 40.87317408 42.42039508 45 42 C45 42.66 45 43.32 45 44 C45.99 44.495 45.99 44.495 47 45 C46.505 45.99 46.505 45.99 46 47 C46.66 47 47.32 47 48 47 C48.33 47.66 48.66 48.32 49 49 C50.98 48.505 50.98 48.505 53 48 C53 49.32 53 50.64 53 52 C54.32 52.66 55.64 53.32 57 54 C57 54.66 57 55.32 57 56 C59.97 55.34 62.94 54.68 66 54 C66 55.98 66 57.96 66 60 C67.423125 60.185625 67.423125 60.185625 68.875 60.375 C72 61 72 61 74 63 C76.31442973 63.02139926 76.31442973 63.02139926 78.875 62.625 C81.99785881 62.22415544 84.83130728 62 88 62 C87.67 63.32 87.34 64.64 87 66 C90.0745356 65.2236068 90.0745356 65.2236068 92 63 C92.99 64.65 93.98 66.3 95 68 C94.34 68.99 93.68 69.98 93 71 C93.66 71.33 94.32 71.66 95 72 C95 72.66 95 73.32 95 74 C96.03640625 73.95359375 97.0728125 73.9071875 98.140625 73.859375 C99.51038779 73.82184725 100.88018182 73.78544816 102.25 73.75 C102.93191406 73.71648437 103.61382812 73.68296875 104.31640625 73.6484375 C107.83967457 73.58002452 109.58309561 73.64506789 112.3125 75.96875 C112.869375 76.6390625 113.42625 77.309375 114 78 C116.64184541 78.79681318 116.64184541 78.79681318 119 79 C119 79.66 119 80.32 119 81 C113.59876523 80.63741711 109.01575634 79.79836877 104.0078125 77.74609375 C101.96362178 76.98648202 100.01408272 76.53939794 97.875 76.125 C90.83939078 74.6833778 83.42684967 72.21342483 77 69 C77 68.34 77 67.68 77 67 C75.02 66.67 73.04 66.34 71 66 C71 65.34 71 64.68 71 64 C70.319375 63.9175 69.63875 63.835 68.9375 63.75 C66.31274015 63.07984855 64.72195817 62.35885874 62.4375 61 C59.3150094 58.95060278 59.3150094 58.95060278 56.75 58.5 C54.21896835 57.7768481 53.53579642 56.08868313 52 54 C51.154375 53.505 50.30875 53.01 49.4375 52.5 C46.72228792 50.82910026 46.3742921 49.7485842 45 47 C43.67851173 46.62243192 42.34164079 46.2981424 41 46 C37.75 44.0625 37.75 44.0625 35 42 C35 41.34 35 40.68 35 40 C34.42894531 39.75507813 33.85789063 39.51015625 33.26953125 39.2578125 C26.6789076 35.60517771 21.53534358 28.62820009 16.67578125 22.953125 C15.56438464 21.65779095 14.43676639 20.37618978 13.29296875 19.109375 C0 4.34607788 0 4.34607788 0 0 Z " fill="#005A73" transform="translate(52,339)"/>
<path d="M0 0 C-4.88182883 2.75385216 -9.55432314 3.97137215 -15 5 C-15.66 7.31 -16.32 9.62 -17 12 C-17.78375 11.7525 -18.5675 11.505 -19.375 11.25 C-24.46954003 10.89865241 -28.5275037 12.6163532 -33 15 C-33.33 15.66 -33.66 16.32 -34 17 C-35.32 17 -36.64 17 -38 17 C-40.38142305 18.21037181 -40.38142305 18.21037181 -43 20 C-44.39535074 20.85495479 -45.79121385 21.70907374 -47.1875 22.5625 C-49.43788802 23.9437133 -51.12098245 25.12098245 -53 27 C-52.236875 27.144375 -51.47375 27.28875 -50.6875 27.4375 C-48 28 -48 28 -45 29 C-44.505 27.515 -44.505 27.515 -44 26 C-43.30132812 25.93941406 -42.60265625 25.87882812 -41.8828125 25.81640625 C-40.51769531 25.69072266 -40.51769531 25.69072266 -39.125 25.5625 C-38.22007813 25.48128906 -37.31515625 25.40007813 -36.3828125 25.31640625 C-33.98889139 25.13010715 -33.98889139 25.13010715 -32 24 C-30.32345271 24.27942455 -28.65391846 24.60828247 -27 25 C-26.505 23.515 -26.505 23.515 -26 22 C-22.06724871 20.63866302 -18.09107168 19.74383122 -14 19 C-14 19.66 -14 20.32 -14 21 C-13.41371826 20.98984863 -12.82743652 20.97969727 -12.22338867 20.96923828 C-5.54227032 20.9051163 1.0342682 21.28962045 7.6875 21.875 C8.68072266 21.95363281 9.67394531 22.03226563 10.69726562 22.11328125 C16.04610288 22.57530706 20.90216522 23.30309835 26 25 C26 25.33 26 25.66 26 26 C20.25 26.125 20.25 26.125 18 25 C12.69462008 24.71940454 7.37481317 24.75408677 2.0625 24.75 C1.28812592 24.74932526 0.51375183 24.74865051 -0.28408813 24.74795532 C-16.52152935 24.77051816 -31.19516693 26.28447696 -46.5390625 31.79296875 C-58.60194175 36 -58.60194175 36 -64 36 C-64 36.66 -64 37.32 -64 38 C-64.58007812 38.24234375 -65.16015625 38.4846875 -65.7578125 38.734375 C-69.50630363 40.34263852 -73.07910377 41.91662296 -76.4375 44.25 C-79 46 -79 46 -81 46 C-81 44.68 -81 43.36 -81 42 C-79.37501495 40.93360356 -77.69403834 39.95289657 -76 39 C-73.87630778 37.18897374 -71.81984043 35.31927902 -69.76953125 33.42578125 C-68 32 -68 32 -66 32 C-66 31.34 -66 30.68 -66 30 C-64.61189246 29.01816784 -63.21410224 28.04748309 -61.7734375 27.14453125 C-59.95819196 25.97301816 -58.27624367 24.68938711 -56.5625 23.375 C-53.16548399 20.91064686 -50.0776936 19.9154006 -46 19 C-46 18.34 -46 17.68 -46 17 C-43.09451118 14.95830515 -41.59857954 14 -38 14 C-38 13.34 -38 12.68 -38 12 C-37.21753906 11.73445313 -36.43507812 11.46890625 -35.62890625 11.1953125 C-34.61699219 10.84210937 -33.60507813 10.48890625 -32.5625 10.125 C-31.55316406 9.77695312 -30.54382813 9.42890625 -29.50390625 9.0703125 C-26.86028249 8.25944907 -26.86028249 8.25944907 -26 6 C-22.49618171 4.50084358 -18.82114338 3.45502555 -15.1875 2.3125 C-14.17623047 1.97927734 -13.16496094 1.64605469 -12.12304688 1.30273438 C-10.6602832 0.83770508 -10.6602832 0.83770508 -9.16796875 0.36328125 C-8.27360107 0.07751221 -7.3792334 -0.20825684 -6.45776367 -0.50268555 C-3.88582316 -1.02310303 -2.45082964 -0.85523929 0 0 Z " fill="#0373A3" transform="translate(159,19)"/>
<path d="M0 0 C0.495 0.99 0.495 0.99 1 2 C-0.25922648 4.27932101 -1.55979496 6.40120192 -3 8.5625 C-3.61597046 9.50379761 -3.61597046 9.50379761 -4.24438477 10.46411133 C-7.16555561 14.87785948 -10.26017114 19.11363949 -13.58984375 23.23046875 C-15.16532265 25.15617228 -15.16532265 25.15617228 -17 28 C-17.66 28 -18.32 28 -19 28 C-19.22429687 28.55171875 -19.44859375 29.1034375 -19.6796875 29.671875 C-21.40385183 32.71211744 -23.62515822 34.81425673 -26.125 37.25 C-27.03507812 38.14203125 -27.94515625 39.0340625 -28.8828125 39.953125 C-29.58148438 40.62859375 -30.28015625 41.3040625 -31 42 C-31.99 41.505 -31.99 41.505 -33 41 C-32.52797514 36.75177626 -30.03344482 34.80010291 -27 32 C-27.99 31.01 -28.98 30.02 -30 29 C-30 29.66 -30 30.32 -30 31 C-30.66 31 -31.32 31 -32 31 C-32.33 31.66 -32.66 32.32 -33 33 C-33.99 32.505 -33.99 32.505 -35 32 C-35.495 32.99 -35.495 32.99 -36 34 C-38.33157492 34.34541851 -40.66508361 34.67794257 -43 35 C-46.24849977 36.72226496 -46.24849977 36.72226496 -47 40 C-48.27875 40.144375 -49.5575 40.28875 -50.875 40.4375 C-53.25692894 40.70642746 -54.84452691 40.92226346 -57 42 C-57 41.34 -57 40.68 -57 40 C-57.70898438 40.15726562 -58.41796875 40.31453125 -59.1484375 40.4765625 C-62.91273171 41.16754253 -66.65875491 41.32470231 -70.4765625 41.5234375 C-73.31074303 42.05868522 -74.23146438 42.78042844 -76 45 C-76.33 44.34 -76.66 43.68 -77 43 C-79.52733235 42.34444881 -79.52733235 42.34444881 -82 42 C-82.33 42.66 -82.66 43.32 -83 44 C-83 43.34 -83 42.68 -83 42 C-86.3 42 -89.6 42 -93 42 C-93 41.34 -93 40.68 -93 40 C-92.35264893 40.00112793 -91.70529785 40.00225586 -91.03833008 40.00341797 C-75.39544273 39.93996917 -61.78765218 38.08115743 -47 33 C-45.91074219 32.65582031 -44.82148438 32.31164062 -43.69921875 31.95703125 C-41.11916334 31.04225039 -38.87586174 29.97648657 -36.5 28.625 C-35.34951172 27.97144531 -35.34951172 27.97144531 -34.17578125 27.3046875 C-32.29532453 26.17708868 -30.48820957 24.9990998 -28.6875 23.75 C-26 22 -26 22 -23.9375 21.5625 C-21.49863498 20.85444241 -20.32260162 19.4781831 -18.6171875 17.65625 C-16.50548016 15.49353524 -14.25753932 13.50967892 -12 11.5 C-8.55836772 8.42199256 -5.21352024 5.31394275 -2 2 C-1.34 1.34 -0.68 0.68 0 0 Z " fill="#0076A2" transform="translate(292,299)"/>
<path d="M0 0 C0.495 1.98 0.495 1.98 1 4 C0.34 4 -0.32 4 -1 4 C-1.37125 4.928125 -1.37125 4.928125 -1.75 5.875 C-3 8 -3 8 -4.8125 8.875 C-7.39047964 10.2008181 -8.61036803 11.96471747 -10.3671875 14.21875 C-13.16959804 17.27592513 -16.56070087 19.61720271 -19.890625 22.0703125 C-22.10637515 24.09731356 -22.6613835 25.06966486 -23 28 C-25 28 -27 28 -29 28 C-32.50760592 29.13997192 -34.47934667 30.37431945 -37 33 C-40.91410291 35.96522948 -44.61773671 36.57368636 -49.33203125 37.40234375 C-52.03385727 38.00758443 -54.34103514 38.89419569 -56.875 40 C-62.4237776 42.36794968 -68.04625894 43.22253553 -74 44 C-72.42560529 40.85121058 -69.28472275 40.45977508 -66.125 39.375 C-65.16787109 39.03082031 -65.16787109 39.03082031 -64.19140625 38.6796875 C-61.32723295 37.67513402 -59.05749257 37 -56 37 C-56.33 36.34 -56.66 35.68 -57 35 C-58.65 35 -60.3 35 -62 35 C-61.125 31.125 -61.125 31.125 -60 30 C-56.05163095 29.7367754 -53.39620731 29.91002627 -50 32 C-50 31.34 -50 30.68 -50 30 C-48.37512529 29.83211627 -46.75009558 29.66573213 -45.125 29.5 C-44.22007812 29.4071875 -43.31515625 29.314375 -42.3828125 29.21875 C-40 29 -40 29 -38 29 C-38 26.69 -38 24.38 -38 22 C-36.35 22.33 -34.7 22.66 -33 23 C-33 23.66 -33 24.32 -33 25 C-29.75150023 23.27773504 -29.75150023 23.27773504 -29 20 C-28.05125 19.9175 -27.1025 19.835 -26.125 19.75 C-22.91669817 19.36039986 -22.91669817 19.36039986 -21.75 17.0625 C-21.5025 16.381875 -21.255 15.70125 -21 15 C-18.4345406 12.4345406 -16.52313332 12.45953913 -13 12 C-12.67 10.35 -12.34 8.7 -12 7 C-10.948125 6.773125 -9.89625 6.54625 -8.8125 6.3125 C-4.8402094 5.20639469 -2.70400363 3.11370115 0 0 Z " fill="#0F8AB4" transform="translate(267,334)"/>
<path d="M0 0 C0 0.66 0 1.32 0 2 C1.9490625 1.7215625 1.9490625 1.7215625 3.9375 1.4375 C6.15234375 1.12109375 6.15234375 1.12109375 8 1 C8.33 1.33 8.66 1.66 9 2 C12.87492494 2.14622358 16.27406677 2.06455235 20 1 C22.16676682 1 24.33357856 1.0238139 26.5 1.0625 C29.97347545 1.17508557 29.97347545 1.17508557 33 0 C34.55643549 -0.01553817 36.11400687 0.03201313 37.66796875 0.12109375 C39.00698242 0.19360352 39.00698242 0.19360352 40.37304688 0.26757812 C41.30181641 0.32365234 42.23058594 0.37972656 43.1875 0.4375 C44.59805664 0.51581055 44.59805664 0.51581055 46.03710938 0.59570312 C48.35841501 0.72531918 50.67928409 0.86028181 53 1 C53 0.34 53 -0.32 53 -1 C54.65 -1 56.3 -1 58 -1 C57.01 0.98 56.02 2.96 55 5 C55.99 5 56.98 5 58 5 C61 6 61 6 62 8 C64.45516759 8.85416577 66.94086878 9.47068248 69.45703125 10.12109375 C72.12905111 11.04460292 73.82053525 12.22830607 76 14 C77.31836295 14.69580267 78.64791086 15.37224433 80 16 C80.495 14.515 80.495 14.515 81 13 C81.66 13 82.32 13 83 13 C83 14.32 83 15.64 83 17 C82.01 17 81.02 17 80 17 C80 17.66 80 18.32 80 19 C74.31497465 17.35433477 69.23318364 14.70967216 64 12 C64 11.34 64 10.68 64 10 C62.989375 9.9175 61.97875 9.835 60.9375 9.75 C56.88217103 9.2709789 53.18757444 8.17147518 49.28515625 6.984375 C41.41418333 4.76974903 33.8805868 4.38597475 25.73876953 4.47851562 C23.50052677 4.49999494 21.26549139 4.47856406 19.02734375 4.453125 C10.17070622 4.43855337 2.43492918 5.55106142 -6.04101562 8.14257812 C-9 9 -9 9 -12 9 C-11.33333333 7.66666667 -10.66666667 6.33333333 -10 5 C-9.71125 4.29875 -9.4225 3.5975 -9.125 2.875 C-6.82897001 -0.95171665 -4.04067119 -1.44309685 0 0 Z " fill="#007191" transform="translate(184,92)"/>
<path d="M0 0 C1.32 0 2.64 0 4 0 C4 0.66 4 1.32 4 2 C5.32 2.33 6.64 2.66 8 3 C8 3.66 8 4.32 8 5 C8.87011719 5.17015625 8.87011719 5.17015625 9.7578125 5.34375 C12.19212234 6.05623093 13.79489445 7.06313994 15.875 8.5 C19.23790275 10.68525703 21.93667569 11.69525068 26 12 C26 12.66 26 13.32 26 14 C26.99 14 27.98 14 29 14 C29 14.66 29 15.32 29 16 C29.928125 16.28875 30.85625 16.5775 31.8125 16.875 C35 18 35 18 38 20 C39.73639957 20.39815531 41.48993982 20.72468332 43.25 21 C48.63985129 21.90896043 53.73954931 23.16461605 58.875 25.0625 C67.17404392 27.55221318 75.92227912 27.12445021 84.5 27.0625 C85.69109375 27.05798828 86.8821875 27.05347656 88.109375 27.04882812 C91.07296575 27.03698729 94.03645531 27.0199493 97 27 C99.02450921 27 101.02400526 27.59466775 103 28 C103 28.99 103 29.98 103 31 C101.69796631 30.99214478 101.69796631 30.99214478 100.36962891 30.98413086 C97.15299727 30.96710138 93.93638859 30.95455592 90.71972656 30.94506836 C89.32681523 30.9400357 87.9339092 30.93320902 86.54101562 30.92456055 C84.54038754 30.91244848 82.53972112 30.90729588 80.5390625 30.90234375 C79.33459473 30.89710693 78.13012695 30.89187012 76.88916016 30.88647461 C74.0586323 30.79912109 74.0586323 30.79912109 72 32 C72 31.34 72 30.68 72 30 C69.9617476 29.60686526 67.91914105 29.23626878 65.875 28.875 C64.73804688 28.66617187 63.60109375 28.45734375 62.4296875 28.2421875 C58.72969342 27.98091229 56.40335095 28.60348821 53 30 C53 29.34 53 28.68 53 28 C50.69 27.67 48.38 27.34 46 27 C46 26.34 46 25.68 46 25 C44.783125 24.9175 43.56625 24.835 42.3125 24.75 C38.12015016 24.24986002 36.26045335 22.67524378 33 20 C29.85961423 19.33568763 26.90191324 18.99694784 23.69140625 19.0078125 C21.25409168 18.93577365 19.30494736 18.8100883 17 18 C15.49814445 16.07398928 14.68770194 14.29663864 13.8515625 12.0078125 C12.21136174 8.14055015 9.50278999 6.56690016 5.8125 4.8125 C5.09707031 4.46832031 4.38164063 4.12414062 3.64453125 3.76953125 C3.10183594 3.51558594 2.55914062 3.26164062 2 3 C2 2.34 2 1.68 2 1 C1.34 0.67 0.68 0.34 0 0 Z " fill="#56A3BF" transform="translate(69,352)"/>
<path d="M0 0 C5.17183223 0.40830254 9.03024687 2.36197899 13.53515625 4.74609375 C16.93433399 6.47531095 20.38487163 7.79495721 24 9 C24.639375 9.680625 25.27875 10.36125 25.9375 11.0625 C28.01426407 13.45645031 28.01426407 13.45645031 32 13 C32 13.99 32 14.98 32 16 C34.33214148 17.20628008 36.49642139 18.1654738 39 19 C39.66 19.66 40.32 20.32 41 21 C41.66 21.33 42.32 21.66 43 22 C43 22.66 43 23.32 43 24 C43.66 24 44.32 24 45 24 C45.53625 24.86625 46.0725 25.7325 46.625 26.625 C48.88336768 30.26252351 51.88606552 32.32411747 55.390625 34.703125 C56.18726563 35.34507813 56.18726563 35.34507813 57 36 C57 36.66 57 37.32 57 38 C57.8971875 38.0928125 57.8971875 38.0928125 58.8125 38.1875 C61.90339529 39.33554682 62.5880344 41.10547052 64 44 C64 44.66 64 45.32 64 46 C64.99 46 65.98 46 67 46 C67 46.99 67 47.98 67 49 C68.65 49.33 70.3 49.66 72 50 C71.67 51.98 71.34 53.96 71 56 C69.33333333 54.33333333 67.66666667 52.66666667 66 51 C65.236875 50.2575 64.47375 49.515 63.6875 48.75 C61 46 61 46 59.08203125 43.71875 C58.39496094 42.9040625 57.70789063 42.089375 57 41.25 C56.360625 40.47140625 55.72125 39.6928125 55.0625 38.890625 C52.66141077 36.68962654 51.1631945 36.469577 48 36 C45.6875 34.0625 45.6875 34.0625 44 32 C44 31.34 44 30.68 44 30 C43.34 30 42.68 30 42 30 C42 29.01 42 28.02 42 27 C40.05860739 25.22964198 38.16676879 23.67880574 36.0625 22.125 C35.46348877 21.67592285 34.86447754 21.2268457 34.24731445 20.76416016 C29.68769247 17.39696047 25.07712272 14.5271092 20 12 C18.66488578 11.30951878 17.33030035 10.61801463 15.99609375 9.92578125 C14.5396559 9.17852979 13.08261933 8.43244418 11.625 7.6875 C10.92205811 7.3251123 10.21911621 6.96272461 9.49487305 6.58935547 C5.45043721 4.53838401 5.45043721 4.53838401 1 4 C0.34 3.34 -0.32 2.68 -1 2 C-0.67 1.34 -0.34 0.68 0 0 Z " fill="#2F95BA" transform="translate(213,52)"/>
<path d="M0 0 C1.8243457 -0.00193359 1.8243457 -0.00193359 3.68554688 -0.00390625 C5.60270508 0.00189453 5.60270508 0.00189453 7.55859375 0.0078125 C8.80962891 0.00394531 10.06066406 0.00007812 11.34960938 -0.00390625 C21.52613622 0.00680025 31.05876733 0.97636222 40.99609375 3.1328125 C42.02959961 3.35590088 42.02959961 3.35590088 43.08398438 3.58349609 C45.45139058 4.09603251 47.81767052 4.6134752 50.18359375 5.1328125 C51.32429321 5.38188354 51.32429321 5.38188354 52.48803711 5.63598633 C57.04518624 6.64741598 61.52066274 7.80500251 65.99609375 9.1328125 C65.99609375 9.4628125 65.99609375 9.7928125 65.99609375 10.1328125 C62.69609375 10.4628125 59.39609375 10.7928125 55.99609375 11.1328125 C55.99609375 10.1428125 55.99609375 9.1528125 55.99609375 8.1328125 C55.19171875 8.3596875 54.38734375 8.5865625 53.55859375 8.8203125 C48.80636557 9.23717462 45.37371924 7.85489311 40.99609375 6.1328125 C39.98546875 5.7409375 38.97484375 5.3490625 37.93359375 4.9453125 C36.97453125 4.543125 36.97453125 4.543125 35.99609375 4.1328125 C35.99609375 4.7928125 35.99609375 5.4528125 35.99609375 6.1328125 C33.26967387 5.65167958 30.83577519 5.07087124 28.24609375 4.0703125 C23.59728693 2.72931053 18.33732474 1.93608662 13.89453125 4.20703125 C11.99609375 5.1328125 11.99609375 5.1328125 9.24609375 4.1953125 C5.80692359 3.07096841 3.53425544 3.24690654 0.00390625 3.87109375 C-2.00390625 4.1328125 -2.00390625 4.1328125 -5.56640625 3.6953125 C-9.69155088 4.22033091 -10.12825976 5.02976919 -12.69140625 8.1328125 C-13.23152344 8.8753125 -13.77164063 9.6178125 -14.328125 10.3828125 C-14.88113281 10.9603125 -15.43414062 11.5378125 -16.00390625 12.1328125 C-17.32390625 12.1328125 -18.64390625 12.1328125 -20.00390625 12.1328125 C-20.00390625 11.4728125 -20.00390625 10.8128125 -20.00390625 10.1328125 C-19.01390625 9.8028125 -18.02390625 9.4728125 -17.00390625 9.1328125 C-17.27066829 7.14789608 -17.27066829 7.14789608 -18.00390625 5.1328125 C-18.99390625 4.8028125 -19.98390625 4.4728125 -21.00390625 4.1328125 C-21.00390625 3.8028125 -21.00390625 3.4728125 -21.00390625 3.1328125 C-20.08867187 3.00003906 -19.1734375 2.86726562 -18.23046875 2.73046875 C-17.04195312 2.55386719 -15.8534375 2.37726562 -14.62890625 2.1953125 C-13.44554687 2.02128906 -12.2621875 1.84726563 -11.04296875 1.66796875 C-1.58001064 0.00161237 -1.58001064 0.00161237 0 0 Z " fill="#5D92AC" transform="translate(199.00390625,9.8671875)"/>
<path d="M0 0 C1.32 0 2.64 0 4 0 C4 0.66 4 1.32 4 2 C4.58628174 1.98984863 5.17256348 1.97969727 5.77661133 1.96923828 C12.45772968 1.9051163 19.0342682 2.28962045 25.6875 2.875 C26.68072266 2.95363281 27.67394531 3.03226563 28.69726562 3.11328125 C34.04610288 3.57530706 38.90216522 4.30309835 44 6 C44 6.33 44 6.66 44 7 C38.25 7.125 38.25 7.125 36 6 C30.69462008 5.71940454 25.37481317 5.75408677 20.0625 5.75 C19.28812592 5.74932526 18.51375183 5.74865051 17.71591187 5.74795532 C1.40335677 5.77062254 -13.41791578 7.22946496 -28.80078125 12.9140625 C-31.87877558 13.95885178 -34.78510646 14.56226866 -38 15 C-35.63310519 12.99724285 -33.86222286 11.95591132 -30.875 11 C-27.71384124 10.22470344 -27.71384124 10.22470344 -26 7 C-23.6875 6.5234375 -23.6875 6.5234375 -21 6.375 C-17.36174121 6.21225801 -17.36174121 6.21225801 -14 5 C-12.32345271 5.27942455 -10.65391846 5.60828247 -9 6 C-8.67 5.01 -8.34 4.02 -8 3 C-5.68970915 2.25740651 -3.354248 1.588562 -1 1 C-0.67 0.67 -0.34 0.34 0 0 Z " fill="#2293BA" transform="translate(141,38)"/>
<path d="M0 0 C2.64 0 5.28 0 8 0 C7.67 1.32 7.34 2.64 7 4 C10.0745356 3.2236068 10.0745356 3.2236068 12 1 C12.99 2.65 13.98 4.3 15 6 C14.01 7.485 14.01 7.485 13 9 C13.66 9.33 14.32 9.66 15 10 C15 10.66 15 11.32 15 12 C16.03640625 11.95359375 17.0728125 11.9071875 18.140625 11.859375 C19.51038779 11.82184725 20.88018182 11.78544816 22.25 11.75 C23.27287109 11.69972656 23.27287109 11.69972656 24.31640625 11.6484375 C27.83967457 11.58002452 29.58309561 11.64506789 32.3125 13.96875 C32.869375 14.6390625 33.42625 15.309375 34 16 C36.64184541 16.79681318 36.64184541 16.79681318 39 17 C39 17.66 39 18.32 39 19 C33.60898215 18.63810297 29.02886473 17.80649801 24.03125 15.75390625 C21.86699391 14.95063428 19.76083282 14.4606834 17.5 14 C13.11767441 13.10067057 9.15114216 11.66045686 5 10 C5 9.34 5 8.68 5 8 C4.01 7.67 3.02 7.34 2 7 C2 6.01 2 5.02 2 4 C1.01 3.67 0.02 3.34 -1 3 C-0.67 2.01 -0.34 1.02 0 0 Z " fill="#028DB2" transform="translate(132,401)"/>
<path d="M0 0 C4.81089871 2.54694637 8.2188088 5.01979874 12 9 C15.31033382 11.79064747 15.31033382 11.79064747 19 14 C19 14.66 19 15.32 19 16 C20.11375 16.433125 20.11375 16.433125 21.25 16.875 C23.56739797 17.82302644 25.77917115 18.84845911 28 20 C26.02 20.99 26.02 20.99 24 22 C23.01 21.34 22.02 20.68 21 20 C20.67 21.65 20.34 23.3 20 25 C20.99 24.67 21.98 24.34 23 24 C24.32 25.65 25.64 27.3 27 29 C25.68 29.33 24.36 29.66 23 30 C19.98997157 26.67559082 16.99134071 23.34123394 14 20 C13.18208984 19.09121094 13.18208984 19.09121094 12.34765625 18.1640625 C0 4.14040859 0 4.14040859 0 0 Z " fill="#007298" transform="translate(52,339)"/>
<path d="M0 0 C2.64 0.33 5.28 0.66 8 1 C8 2.32 8 3.64 8 5 C8.99 5 9.98 5 11 5 C11 4.01 11 3.02 11 2 C11.99 2 12.98 2 14 2 C15.00696568 4.10084209 16.0053589 6.20579489 17 8.3125 C17.556875 9.48425781 18.11375 10.65601563 18.6875 11.86328125 C20 15 20 15 20 18 C20.66 18 21.32 18 22 18 C22.66 21.63 23.32 25.26 24 29 C23.34 29 22.68 29 22 29 C20.96210419 27.35666496 19.96432076 25.68756133 19 24 C18.34 23.34 17.68 22.68 17 22 C17 20.68 17 19.36 17 18 C16.1028125 17.690625 16.1028125 17.690625 15.1875 17.375 C13 16 13 16 11.6875 13.3125 C9.50100754 9.02049629 6.47749042 6.26409897 3 3 C1.99658512 2.00342658 0.99543733 1.00454194 0 0 Z " fill="#006C9C" transform="translate(282,125)"/>
<path d="M0 0 C0.66 0.33 1.32 0.66 2 1 C2.33333333 2.33333333 2.66666667 3.66666667 3 5 C3.66 5.33 4.32 5.66 5 6 C4.15179688 6.32871094 3.30359375 6.65742187 2.4296875 6.99609375 C-5.66687633 10.2792059 -12.79927901 14.16390835 -20.0390625 19.046875 C-22.33052599 20.55839445 -24.51286333 21.85955684 -27 23 C-27.33 20.69 -27.66 18.38 -28 16 C-26.33333333 16 -24.66666667 16 -23 16 C-17.6750389 12.16662188 -17.6750389 12.16662188 -14.0625 6.875 C-13 5 -13 5 -10.875 4.25 C-10.25625 4.1675 -9.6375 4.085 -9 4 C-9 5.32 -9 6.64 -9 8 C-7.68 7.67 -6.36 7.34 -5 7 C-4.9175 6.401875 -4.835 5.80375 -4.75 5.1875 C-3.79544128 2.4033704 -2.42867729 1.56688858 0 0 Z " fill="#659CB6" transform="translate(167,96)"/>
<path d="M0 0 C0.495 1.98 0.495 1.98 1 4 C0.34 4 -0.32 4 -1 4 C-1.2475 4.61875 -1.495 5.2375 -1.75 5.875 C-3 8 -3 8 -4.8125 8.875 C-7.39047964 10.2008181 -8.61036803 11.96471747 -10.3671875 14.21875 C-13.16959804 17.27592513 -16.56070087 19.61720271 -19.890625 22.0703125 C-22.10637515 24.09731356 -22.6613835 25.06966486 -23 28 C-25 28 -27 28 -29 28 C-29.66 28.33 -30.32 28.66 -31 29 C-31.66 28.34 -32.32 27.68 -33 27 C-32.030625 26.7525 -31.06125 26.505 -30.0625 26.25 C-29.051875 25.8375 -28.04125 25.425 -27 25 C-26.18553891 22.99427359 -26.18553891 22.99427359 -26 21 C-25.34 20.67 -24.68 20.34 -24 20 C-22.98133771 18.34467377 -21.98189187 16.67739862 -21 15 C-18.4345406 12.4345406 -16.52313332 12.45953913 -13 12 C-12.67 10.35 -12.34 8.7 -12 7 C-10.948125 6.773125 -9.89625 6.54625 -8.8125 6.3125 C-4.8402094 5.20639469 -2.70400363 3.11370115 0 0 Z " fill="#51A4BF" transform="translate(267,334)"/>
<path d="M0 0 C2.30778991 0.01094801 4.61483755 -0.00008852 6.92260742 -0.01269531 C8.39721851 -0.01137722 9.87182913 -0.00882215 11.34643555 -0.00488281 C12.66490479 -0.00262695 13.98337402 -0.00037109 15.34179688 0.00195312 C18.4519043 0.26074219 18.4519043 0.26074219 20.4519043 2.26074219 C18.1419043 1.93074219 15.8319043 1.60074219 13.4519043 1.26074219 C13.9469043 2.25074219 13.9469043 2.25074219 14.4519043 3.26074219 C16.97923665 3.91629338 16.97923665 3.91629338 19.4519043 4.26074219 C16.22747985 6.23081388 14.42764298 6.42698872 10.7644043 5.57324219 C9.97678711 5.404375 9.18916992 5.23550781 8.37768555 5.06152344 C7.74217773 4.79726563 7.10666992 4.53300781 6.4519043 4.26074219 C5.9569043 2.77574219 5.9569043 2.77574219 5.4519043 1.26074219 C4.1319043 1.26074219 2.8119043 1.26074219 1.4519043 1.26074219 C1.4519043 1.92074219 1.4519043 2.58074219 1.4519043 3.26074219 C0.4825293 3.38449219 -0.4868457 3.50824219 -1.4855957 3.63574219 C-3.0015332 3.94511719 -3.0015332 3.94511719 -4.5480957 4.26074219 C-4.8780957 4.92074219 -5.2080957 5.58074219 -5.5480957 6.26074219 C-7.8580957 6.26074219 -10.1680957 6.26074219 -12.5480957 6.26074219 C-12.5480957 5.27074219 -12.5480957 4.28074219 -12.5480957 3.26074219 C-18.4880957 3.26074219 -24.4280957 3.26074219 -30.5480957 3.26074219 C-30.5480957 2.93074219 -30.5480957 2.60074219 -30.5480957 2.26074219 C-20.30891356 0.6074085 -10.3629488 -0.05869441 0 0 Z " fill="#5AA5C0" transform="translate(158.548095703125,42.7392578125)"/>
<path d="M0 0 C3.17951138 1.36640159 3.91847336 1.86024004 5.75 5 C7.75754681 10.33497246 8.05548587 15.97724705 6.16796875 21.3828125 C3.63118375 26.68440813 3.63118375 26.68440813 1 28 C-0.0592918 24.82212459 -0.11458939 22.57411057 -0.09765625 19.23828125 C-0.09443359 18.12001953 -0.09121094 17.00175781 -0.08789062 15.84960938 C-0.07951172 14.68236328 -0.07113281 13.51511719 -0.0625 12.3125 C-0.05573242 10.54422852 -0.05573242 10.54422852 -0.04882812 8.74023438 C-0.03703273 5.82677211 -0.0205727 2.91341137 0 0 Z " fill="#82A8BA" transform="translate(215,212)"/>
<path d="M0 0 C6.62554141 0.57090833 12.60408731 1.74498879 18.875 4.0625 C27.17404392 6.55221318 35.92227912 6.12445021 44.5 6.0625 C45.69109375 6.05798828 46.8821875 6.05347656 48.109375 6.04882812 C51.07296575 6.03698729 54.03645531 6.0199493 57 6 C59.02450921 6 61.02400526 6.59466775 63 7 C63 7.99 63 8.98 63 10 C62.13197754 9.99476318 61.26395508 9.98952637 60.36962891 9.98413086 C57.15299727 9.96710138 53.93638859 9.95455592 50.71972656 9.94506836 C49.32681523 9.9400357 47.9339092 9.93320902 46.54101562 9.92456055 C44.54038754 9.91244848 42.53972112 9.90729588 40.5390625 9.90234375 C39.33459473 9.89710693 38.13012695 9.89187012 36.88916016 9.88647461 C34.0586323 9.79912109 34.0586323 9.79912109 32 11 C32 10.34 32 9.68 32 9 C31.29617187 8.90203125 30.59234375 8.8040625 29.8671875 8.703125 C19.59931744 7.14819951 9.82481927 4.32441014 0 1 C0 0.67 0 0.34 0 0 Z " fill="#3397BC" transform="translate(109,373)"/>
<path d="M0 0 C20.18338489 1.73994697 20.18338489 1.73994697 28 7 C28 6.34 28 5.68 28 5 C29.65 5 31.3 5 33 5 C33 5.66 33 6.32 33 7 C34.7015625 7.2165625 34.7015625 7.2165625 36.4375 7.4375 C40 8 40 8 41 9 C43.01594582 9.23427778 45.038474 9.41336124 47.0625 9.5625 C48.16722656 9.64628906 49.27195313 9.73007812 50.41015625 9.81640625 C51.69212891 9.90728516 51.69212891 9.90728516 53 10 C53 10.33 53 10.66 53 11 C38.08526595 11.17685455 25.21628045 9.84645925 11 5 C9.60520905 4.6828799 8.20929909 4.37065459 6.8125 4.0625 C3.16257693 3.04530833 2.33801972 2.65651157 0 0 Z " fill="#6FABC2" transform="translate(102,369)"/>
<path d="M0 0 C-4.88182883 2.75385216 -9.55432314 3.97137215 -15 5 C-15.66 7.31 -16.32 9.62 -17 12 C-18.175625 11.62875 -18.175625 11.62875 -19.375 11.25 C-24.54213825 10.89364564 -28.36798208 12.86707475 -33 15 C-33.33 14.01 -33.66 13.02 -34 12 C-31.61426621 10.10786631 -29.92824652 8.97608217 -27 8 C-26.67 7.34 -26.34 6.68 -26 6 C-22.49618171 4.50084358 -18.82114338 3.45502555 -15.1875 2.3125 C-14.17623047 1.97927734 -13.16496094 1.64605469 -12.12304688 1.30273438 C-11.14787109 0.99271484 -10.17269531 0.68269531 -9.16796875 0.36328125 C-8.27360107 0.07751221 -7.3792334 -0.20825684 -6.45776367 -0.50268555 C-3.88582316 -1.02310303 -2.45082964 -0.85523929 0 0 Z " fill="#007DA9" transform="translate(159,19)"/>
<path d="M0 0 C1.62490954 -0.02698189 3.24994633 -0.04638757 4.875 -0.0625 C5.77992188 -0.07410156 6.68484375 -0.08570313 7.6171875 -0.09765625 C10 0 10 0 12 1 C14.68716824 1.09889585 17.34785141 1.1398406 20.03515625 1.1328125 C20.8290123 1.13376923 21.62286835 1.13472595 22.44078064 1.13571167 C24.11945678 1.13639251 25.79813555 1.1345449 27.47680664 1.13037109 C30.05556097 1.12501441 32.63414168 1.13032292 35.21289062 1.13671875 C36.84114622 1.13605809 38.46940171 1.13477718 40.09765625 1.1328125 C41.26168724 1.13584885 41.26168724 1.13584885 42.44923401 1.13894653 C46.02008827 1.45605989 46.02008827 1.45605989 49 0 C51.69654854 -0.07319621 54.36691458 -0.09242537 57.0625 -0.0625 C57.82111328 -0.05798828 58.57972656 -0.05347656 59.36132812 -0.04882812 C61.24091871 -0.0370068 63.12046899 -0.01907078 65 0 C65 0.33 65 0.66 65 1 C43.99370895 6.17457023 21.04414922 5.79053803 0 1 C0 0.67 0 0.34 0 0 Z " fill="#3C849F" transform="translate(177,421)"/>
<path d="M0 0 C0 0.66 0 1.32 0 2 C1.9490625 1.7215625 1.9490625 1.7215625 3.9375 1.4375 C6.15234375 1.12109375 6.15234375 1.12109375 8 1 C8.33 1.33 8.66 1.66 9 2 C12.8361222 2.14475933 16.32307787 2.17661508 20 1 C20.495 2.485 20.495 2.485 21 4 C20.09121094 4.02578125 19.18242187 4.0515625 18.24609375 4.078125 C9.74331038 4.46184035 2.20778109 5.7411535 -5.953125 8.16015625 C-9 9 -9 9 -12 9 C-11.33333333 7.66666667 -10.66666667 6.33333333 -10 5 C-9.71125 4.29875 -9.4225 3.5975 -9.125 2.875 C-6.82897001 -0.95171665 -4.04067119 -1.44309685 0 0 Z " fill="#348CAF" transform="translate(184,92)"/>
<path d="M0 0 C1.25683594 0.00322266 2.51367188 0.00644531 3.80859375 0.00976562 C5.12730469 0.01814453 6.44601563 0.02652344 7.8046875 0.03515625 C9.14452961 0.04017136 10.4843735 0.04473424 11.82421875 0.04882812 C15.10941956 0.06064539 18.39453147 0.07712008 21.6796875 0.09765625 C21.6796875 0.42765625 21.6796875 0.75765625 21.6796875 1.09765625 C14.7496875 1.09765625 7.8196875 1.09765625 0.6796875 1.09765625 C0.6796875 1.75765625 0.6796875 2.41765625 0.6796875 3.09765625 C-2.3203125 4.09765625 -2.3203125 4.09765625 -5.5703125 3.66015625 C-9.96408171 4.17276266 -10.32566201 4.81562694 -13.0078125 8.09765625 C-13.54792969 8.84015625 -14.08804688 9.58265625 -14.64453125 10.34765625 C-15.19753906 10.92515625 -15.75054687 11.50265625 -16.3203125 12.09765625 C-17.6403125 12.09765625 -18.9603125 12.09765625 -20.3203125 12.09765625 C-20.3203125 11.43765625 -20.3203125 10.77765625 -20.3203125 10.09765625 C-19.3303125 9.76765625 -18.3403125 9.43765625 -17.3203125 9.09765625 C-17.58707454 7.11273983 -17.58707454 7.11273983 -18.3203125 5.09765625 C-19.3103125 4.76765625 -20.3003125 4.43765625 -21.3203125 4.09765625 C-21.3203125 3.76765625 -21.3203125 3.43765625 -21.3203125 3.09765625 C-20.40507812 2.96488281 -19.48984375 2.83210937 -18.546875 2.6953125 C-17.35835937 2.51871094 -16.16984375 2.34210937 -14.9453125 2.16015625 C-13.76195312 1.98613281 -12.57859375 1.81210938 -11.359375 1.6328125 C-2.03485469 -0.00916601 -2.03485469 -0.00916601 0 0 Z " fill="#097597" transform="translate(199.3203125,9.90234375)"/>
<path d="M0 0 C0.33 0.66 0.66 1.32 1 2 C-0.36666686 4.41908927 -1.77342324 6.69485646 -3.3125 9 C-3.72951172 9.64195312 -4.14652344 10.28390625 -4.57617188 10.9453125 C-6.24666831 13.49235332 -7.84071329 15.84071329 -10 18 C-13.125 18.125 -13.125 18.125 -16 18 C-16 18.66 -16 19.32 -16 20 C-22.4 24.06153846 -22.4 24.06153846 -25.4375 23.75 C-25.953125 23.5025 -26.46875 23.255 -27 23 C-26.278125 22.773125 -25.55625 22.54625 -24.8125 22.3125 C-22.11786561 21.05500395 -20.58951868 19.76878665 -18.58203125 17.62109375 C-16.48272807 15.46995592 -14.24467567 13.49859271 -12 11.5 C-8.55836772 8.42199256 -5.21352024 5.31394275 -2 2 C-1.34 1.34 -0.68 0.68 0 0 Z " fill="#005E84" transform="translate(292,299)"/>
<path d="M0 0 C1.65 0 3.3 0 5 0 C3.25 3 3.25 3 1 6 C-0.32 6 -1.64 6 -3 6 C-3 5.34 -3 4.68 -3 4 C-3.99 4.33 -4.98 4.66 -6 5 C-7.9920303 5.08291953 -9.98673713 5.10738177 -11.98046875 5.09765625 C-13.14384766 5.09443359 -14.30722656 5.09121094 -15.50585938 5.08789062 C-16.72080078 5.07951172 -17.93574219 5.07113281 -19.1875 5.0625 C-20.41404297 5.05798828 -21.64058594 5.05347656 -22.90429688 5.04882812 C-25.93624668 5.03703065 -28.96809906 5.02056921 -32 5 C-32 4.34 -32 3.68 -32 3 C-24.33106601 1.37325643 -17.35857549 0.9491929 -9.5625 1.4375 C-8.64017578 1.48970703 -7.71785156 1.54191406 -6.76757812 1.59570312 C-4.51128464 1.72430016 -2.25555971 1.8592071 0 2 C0 1.34 0 0.68 0 0 Z " fill="#0587B2" transform="translate(237,91)"/>
<path d="M0 0 C0 1.65 0 3.3 0 5 C0.94875 5.12375 1.8975 5.2475 2.875 5.375 C6 6 6 6 8 8 C10.60280568 7.67958603 10.60280568 7.67958603 13 7 C13 7.99 13 8.98 13 10 C14.32 10.33 15.64 10.66 17 11 C17 11.99 17 12.98 17 14 C17.66 14.66 18.32 15.32 19 16 C13.25 15.125 13.25 15.125 11 14 C11 13.34 11 12.68 11 12 C8.03 11.505 8.03 11.505 5 11 C5 10.34 5 9.68 5 9 C4.2575 8.87625 3.515 8.7525 2.75 8.625 C-1.63667611 7.62802816 -3.46660641 6.80009038 -6 3 C-6 2.01 -6 1.02 -6 0 C-3 -1 -3 -1 0 0 Z " fill="#007092" transform="translate(118,394)"/>
<path d="M0 0 C0.33 0.66 0.66 1.32 1 2 C-1.61962793 8.5786145 -4.89539975 15.03336191 -10 20 C-10.99 20 -11.98 20 -13 20 C-13.20625 20.9075 -13.4125 21.815 -13.625 22.75 C-15.3204079 26.75732776 -17.27549784 27.89484661 -21 30 C-21.66 29.67 -22.32 29.34 -23 29 C-20.68220933 25.19220105 -19.15744252 22.72032104 -15 21 C-14.67 20.34 -14.34 19.68 -14 19 C-13.34 19 -12.68 19 -12 19 C-12.103125 18.29875 -12.20625 17.5975 -12.3125 16.875 C-11.74766139 11.67848478 -7.54777572 8.54777572 -4 5 C-2.65263027 3.34466005 -1.31665664 1.67987227 0 0 Z " fill="#7CACC2" transform="translate(280,319)"/>
<path d="M0 0 C-2.90600261 1.25664978 -4.79604584 2 -8 2 C-8 2.66 -8 3.32 -8 4 C-13.69546744 7.04641282 -18.68126073 7.41436076 -25.109375 7.59375 C-28.22922133 8.03221489 -29.137084 8.53360417 -31 11 C-31.33 10.34 -31.66 9.68 -32 9 C-34.52733235 8.34444881 -34.52733235 8.34444881 -37 8 C-37.33 8.66 -37.66 9.32 -38 10 C-38 9.34 -38 8.68 -38 8 C-41.3 8 -44.6 8 -48 8 C-48 7.34 -48 6.68 -48 6 C-47.35264893 6.00112793 -46.70529785 6.00225586 -46.03833008 6.00341797 C-31.05529468 5.94264558 -17.92152994 4.41194237 -3.75805664 -0.57861328 C-2 -1 -2 -1 0 0 Z " fill="#00617C" transform="translate(247,333)"/>
<path d="M0 0 C3 3 3 3 3.28515625 5.19921875 C2.70053518 11.73261557 1.03209722 16.56944084 -4 21 C-7.375 22 -7.375 22 -10 22 C-9.34 21.34 -8.68 20.68 -8 20 C-7.97691403 17.77871445 -7.97691403 17.77871445 -8.375 15.375 C-8.48585937 14.55773437 -8.59671875 13.74046875 -8.7109375 12.8984375 C-8.80632812 12.27195313 -8.90171875 11.64546875 -9 11 C-6.36 11 -3.72 11 -1 11 C-0.67 7.37 -0.34 3.74 0 0 Z " fill="#3292B7" transform="translate(173,220)"/>
<path d="M0 0 C28.05 0 56.1 0 85 0 C84.67 1.98 84.34 3.96 84 6 C83.67 6 83.34 6 83 6 C83 4.35 83 2.7 83 1 C72.49065813 1.10745297 61.98138571 1.22007656 51.47217083 1.33933926 C46.59255425 1.39455176 41.71293167 1.44796915 36.83325195 1.49731445 C32.12590583 1.54498259 27.418633 1.5973264 22.71137428 1.65294075 C20.91362134 1.67335318 19.11584831 1.6920681 17.31805992 1.70907402 C14.80400697 1.73314258 12.29009252 1.76319386 9.77612305 1.79467773 C9.02949905 1.8004332 8.28287506 1.80618866 7.5136261 1.81211853 C4.41287071 1.85638576 1.96427994 2.01190669 -1 3 C-0.67 2.01 -0.34 1.02 0 0 Z " fill="#A5A9B2" transform="translate(311,269)"/>
<path d="M0 0 C0.66 0.33 1.32 0.66 2 1 C1.67 2.65 1.34 4.3 1 6 C-0.32 6 -1.64 6 -3 6 C-4.69411167 6.9527662 -6.35919856 7.95810346 -8 9 C-9.8040451 9.7904186 -11.61689269 10.56101528 -13.4375 11.3125 C-17.04423425 12.90313749 -19.66167722 14.32567963 -22.3125 17.25 C-25.30557406 20.31268043 -26.80070881 20.80003375 -31 21 C-31 20.34 -31 19.68 -31 19 C-29.61189246 18.01816784 -28.21410224 17.04748309 -26.7734375 16.14453125 C-24.95819196 14.97301816 -23.27624367 13.68938711 -21.5625 12.375 C-18.16548399 9.91064686 -15.0776936 8.9154006 -11 8 C-11 7.34 -11 6.68 -11 6 C-8.09451118 3.95830515 -6.59857954 3 -3 3 C-3 2.34 -3 1.68 -3 1 C-2.01 0.67 -1.02 0.34 0 0 Z " fill="#006A8F" transform="translate(124,30)"/>
<path d="M0 0 C0.66 0.33 1.32 0.66 2 1 C-3.02859715 6.40108583 -7.21429764 8.15122071 -14.33203125 9.40234375 C-17.03385727 10.00758443 -19.34103514 10.89419569 -21.875 12 C-27.4237776 14.36794968 -33.04625894 15.22253553 -39 16 C-38 14 -38 14 -36.05395508 13.14624023 C-35.21759521 12.86981689 -34.38123535 12.59339355 -33.51953125 12.30859375 C-32.60236328 12.00373047 -31.68519531 11.69886719 -30.74023438 11.38476562 C-29.77408203 11.07216797 -28.80792969 10.75957031 -27.8125 10.4375 C-26.86568359 10.12103516 -25.91886719 9.80457031 -24.94335938 9.47851562 C-20.31569295 7.95748919 -15.85564018 6.59573401 -11 6 C-11 5.34 -11 4.68 -11 4 C-9.1128125 3.566875 -9.1128125 3.566875 -7.1875 3.125 C-4.1460601 2.42696461 -2.69330122 1.79553415 0 0 Z " fill="#419EBE" transform="translate(232,362)"/>
<path d="M0 0 C1.06863281 0.01804688 2.13726562 0.03609375 3.23828125 0.0546875 C4.04652344 0.07789063 4.85476562 0.10109375 5.6875 0.125 C5.6875 0.455 5.6875 0.785 5.6875 1.125 C2.0575 1.125 -1.5725 1.125 -5.3125 1.125 C-5.3125 1.785 -5.3125 2.445 -5.3125 3.125 C-6.3025 3.125 -7.2925 3.125 -8.3125 3.125 C-8.3125 3.785 -8.3125 4.445 -8.3125 5.125 C-9.97916667 6.79166667 -11.64583333 8.45833333 -13.3125 10.125 C-15.8060181 13.77000985 -15.43517053 16.94357435 -15.125 21.25 C-15.04894531 22.49007812 -14.97289062 23.73015625 -14.89453125 25.0078125 C-14.60642578 26.55082031 -14.60642578 26.55082031 -14.3125 28.125 C-13.3225 28.785 -12.3325 29.445 -11.3125 30.125 C-11.3125 30.785 -11.3125 31.445 -11.3125 32.125 C-10.343125 32.41375 -9.37375 32.7025 -8.375 33 C-5.3125 34.125 -5.3125 34.125 -4.3125 36.125 C-9.52358854 34.7601911 -12.47841324 32.78075714 -16.3125 29.125 C-18.54613236 22.42410292 -18.60562385 13.77013475 -15.4375 7.375 C-11.3173286 1.07356139 -7.40018755 -0.16264148 0 0 Z " fill="#005D78" transform="translate(159.3125,207.875)"/>
<path d="M0 0 C1.216875 0.4125 2.43375 0.825 3.6875 1.25 C7.67700825 2.57562774 11.67683849 3.86476921 15.6875 5.125 C16.74324219 5.45757812 17.79898438 5.79015625 18.88671875 6.1328125 C21.91652235 6.97674775 24.89052305 7.54313532 28 8 C26.625 9.5 26.625 9.5 25 11 C24.34 11 23.68 11 23 11 C23 10.34 23 9.68 23 9 C20.03 8.505 20.03 8.505 17 8 C16.67 8.99 16.34 9.98 16 11 C15.67 10.34 15.34 9.68 15 9 C12.97304618 8.60806489 12.97304618 8.60806489 10.625 8.5 C7.10348536 8.27058537 6.07060704 8.04707136 3 6 C3 4.68 3 3.36 3 2 C2.01 1.67 1.02 1.34 0 1 C0 0.67 0 0.34 0 0 Z " fill="#4898B5" transform="translate(162,330)"/>
<path d="M0 0 C0 0.99 0 1.98 0 3 C1.65 3 3.3 3 5 3 C5 3.33 5 3.66 5 4 C3.02 4 1.04 4 -1 4 C-1 3.01 -1 2.02 -1 1 C-4.3 1 -7.6 1 -11 1 C-11 1.66 -11 2.32 -11 3 C-12.216875 2.731875 -13.43375 2.46375 -14.6875 2.1875 C-20.42098891 1.49802981 -24.72307787 3.55722781 -29.88671875 5.87109375 C-33.14795991 7.05365171 -35.56147115 7.21136384 -39 7 C-28.00026817 -2.01151739 -13.32826517 -0.46658798 0 0 Z " fill="#68A9C1" transform="translate(146,46)"/>
<path d="M0 0 C-0.474375 0.5775 -0.94875 1.155 -1.4375 1.75 C-2.9484867 3.92582084 -3.54036151 5.42602448 -4 8 C-7.68886475 8.20493693 -9.78443181 7.76337611 -13 6 C-14.3242287 5.63215869 -15.65613912 5.28797019 -17 5 C-16.67 4.01 -16.34 3.02 -16 2 C-10.50754063 0.16918021 -5.75908058 -0.20568145 0 0 Z " fill="#007FA2" transform="translate(178,14)"/>
<path d="M0 0 C5.17183223 0.40830254 9.03024687 2.36197899 13.53515625 4.74609375 C16.93433399 6.47531095 20.38487163 7.79495721 24 9 C24.33 9.99 24.66 10.98 25 12 C19.59264073 11.50779166 15.52897815 10.04938741 10.75 7.4375 C6.15084599 4.82393396 6.15084599 4.82393396 1 4 C0.34 3.34 -0.32 2.68 -1 2 C-0.67 1.34 -0.34 0.68 0 0 Z " fill="#2C96BB" transform="translate(213,52)"/>
<path d="M0 0 C4.80548597 -0.04936883 9.61082494 -0.08570443 14.41650391 -0.10986328 C16.05194672 -0.11993254 17.68737149 -0.13358881 19.32275391 -0.15087891 C21.6709437 -0.17508705 24.01889588 -0.18647357 26.3671875 -0.1953125 C27.10057343 -0.20563507 27.83395935 -0.21595764 28.58956909 -0.22659302 C30.39462697 -0.22699368 32.1990783 -0.12212755 34 0 C34.66 0.66 35.32 1.32 36 2 C33.69 1.67 31.38 1.34 29 1 C29.33 1.66 29.66 2.32 30 3 C32.52733235 3.65555119 32.52733235 3.65555119 35 4 C31.77557555 5.97007169 29.97573869 6.16624654 26.3125 5.3125 C25.52488281 5.14363281 24.73726562 4.97476563 23.92578125 4.80078125 C23.29027344 4.53652344 22.65476563 4.27226563 22 4 C21.67 3.01 21.34 2.02 21 1 C14.07 1 7.14 1 0 1 C0 0.67 0 0.34 0 0 Z " fill="#3B9BBE" transform="translate(143,43)"/>
<path d="M0 0 C1.32 0 2.64 0 4 0 C4 0.66 4 1.32 4 2 C4.64066406 1.98839844 5.28132812 1.97679687 5.94140625 1.96484375 C11.08653222 1.91116881 15.93024924 2.11830422 21 3 C21 3.33 21 3.66 21 4 C20.44650879 4.02505615 19.89301758 4.0501123 19.32275391 4.07592773 C5.1368692 4.7058811 5.1368692 4.7058811 -9 6 C-8.67 5.01 -8.34 4.02 -8 3 C-5.68970915 2.25740651 -3.354248 1.588562 -1 1 C-0.67 0.67 -0.34 0.34 0 0 Z " fill="#007CA8" transform="translate(141,38)"/>
<path d="M0 0 C2.01171875 1.57421875 2.01171875 1.57421875 4 4 C4.20703125 7.20703125 4.20703125 7.20703125 3.8125 10.8125 C3.68617187 12.04871094 3.55984375 13.28492188 3.4296875 14.55859375 C3.28789063 15.69425781 3.14609375 16.82992188 3 18 C2.89945312 18.81597656 2.79890625 19.63195312 2.6953125 20.47265625 C2.4902683 21.98563392 2.25100579 23.49396526 2 25 C1.67 25 1.34 25 1 25 C0.77213542 22.94921875 0.54427083 20.8984375 0.31640625 18.84765625 C0.18113386 16.98859771 0.18113386 16.98859771 -1 16 C-0.909084 13.29891496 -0.76259234 10.63069689 -0.5625 7.9375 C-0.51029297 7.17888672 -0.45808594 6.42027344 -0.40429688 5.63867188 C-0.27424165 3.75878278 -0.13771962 1.87934315 0 0 Z " fill="#7BA4B7" transform="translate(121,297)"/>
<path d="M0 0 C4.52066574 0.71240063 8.63255776 2.28413699 12.875 3.9375 C17.87139136 5.8784422 22.8230246 7.60100012 28 9 C26 10 24 11 22 12 C22 11.34 22 10.68 22 10 C19.69 9.67 17.38 9.34 15 9 C15 8.34 15 7.68 15 7 C13.783125 6.9175 12.56625 6.835 11.3125 6.75 C6.15596992 6.12026447 3.58864918 3.58864918 0 0 Z " fill="#0080A6" transform="translate(100,370)"/>
<path d="M0 0 C2.08218362 -0.10832169 4.16599129 -0.18573541 6.25 -0.25 C7.99023438 -0.31960938 7.99023438 -0.31960938 9.765625 -0.390625 C13.63448621 0.07662877 14.51939643 1.120728 17 4 C19.64184541 4.79681318 19.64184541 4.79681318 22 5 C22 5.66 22 6.32 22 7 C15.83663397 6.58625552 10.67473514 5.41793062 5 3 C4.01 2.608125 3.02 2.21625 2 1.8125 C1.34 1.544375 0.68 1.27625 0 1 C0 0.67 0 0.34 0 0 Z " fill="#1390B5" transform="translate(149,413)"/>
<path d="M0 0 C0.66 0.33 1.32 0.66 2 1 C2.33333333 2.33333333 2.66666667 3.66666667 3 5 C3.66 5.33 4.32 5.66 5 6 C3.51886719 6.63228516 3.51886719 6.63228516 2.0078125 7.27734375 C0.71352802 7.83069726 -0.58074206 8.38408442 -1.875 8.9375 C-2.52597656 9.21529297 -3.17695313 9.49308594 -3.84765625 9.77929688 C-7.45620223 11.31893559 -7.45620223 11.31893559 -11 13 C-10.8125 11.125 -10.8125 11.125 -10 9 C-8.33333333 8.33333333 -6.66666667 7.66666667 -5 7 C-4.40929986 5.05396726 -4.40929986 5.05396726 -4 3 C-1.9375 1.25 -1.9375 1.25 0 0 Z " fill="#4E9DB7" transform="translate(167,96)"/>
<path d="M0 0 C3.44216672 2.6598561 3.99504674 5.90288286 5 10 C5.99 10 6.98 10 8 10 C8.309375 10.94875 8.61875 11.8975 8.9375 12.875 C9.87394742 15.86080408 9.87394742 15.86080408 11 18 C11.06950541 19.54023996 11.08452357 21.08334988 11.0625 22.625 C11.05347656 23.44226563 11.04445313 24.25953125 11.03515625 25.1015625 C11.02355469 25.72804687 11.01195312 26.35453125 11 27 C8.26094663 23.84821256 7.44730607 21.35182386 6.8125 17.25 C6.65394531 16.26515625 6.49539063 15.2803125 6.33203125 14.265625 C6.16767578 13.14414063 6.16767578 13.14414063 6 12 C5.34 12 4.68 12 4 12 C3.3291288 10.3767313 2.66342971 8.75132422 2 7.125 C1.62875 6.22007812 1.2575 5.31515625 0.875 4.3828125 C0 2 0 2 0 0 Z " fill="#51A1BB" transform="translate(298,131)"/>
<path d="M0 0 C5.99245706 3.17247727 11.32534995 6.43494988 14 13 C11 14 11 14 8 13 C5.95703125 10.56640625 5.95703125 10.56640625 3.8125 7.5625 C3.09707031 6.57378906 2.38164063 5.58507812 1.64453125 4.56640625 C0 2 0 2 0 0 Z " fill="#026E9A" transform="translate(52,339)"/>
<path d="M0 0 C2.375 0.1875 2.375 0.1875 5 1 C5.70211894 2.65204456 6.36971413 4.31923769 7 6 C8.32148827 6.37756808 9.65835921 6.7018576 11 7 C11.99 7.845625 12.98 8.69125 14 9.5625 C16.87317408 12.42039508 16.87317408 12.42039508 21 12 C21.33 12.99 21.66 13.98 22 15 C19 16 19 16 16.95703125 15.22265625 C16.24933594 14.83980469 15.54164062 14.45695312 14.8125 14.0625 C14.09707031 13.68222656 13.38164063 13.30195313 12.64453125 12.91015625 C12.10183594 12.60980469 11.55914062 12.30945313 11 12 C11 11.34 11 10.68 11 10 C10.41734375 9.74347656 9.8346875 9.48695313 9.234375 9.22265625 C6.80289161 7.89214174 5.18264447 6.41556987 3.25 4.4375 C2.63640625 3.81746094 2.0228125 3.19742187 1.390625 2.55859375 C0 1 0 1 0 0 Z " fill="#005A7B" transform="translate(76,369)"/>
<path d="M0 0 C3.07380099 2.87521273 4.97496324 5.89985294 6 10 C5.95600537 12.79610295 5.53345369 15.23573998 5 18 C1.21119276 13.47787523 -0.13898837 10.70210461 -0.0625 4.8125 C-0.05347656 3.91144531 -0.04445312 3.01039063 -0.03515625 2.08203125 C-0.02355469 1.39496094 -0.01195312 0.70789063 0 0 Z " fill="#5997B5" transform="translate(188,221)"/>
<path d="M0 0 C2.97 1.98 2.97 1.98 6 4 C6 3.34 6 2.68 6 2 C6.66 2 7.32 2 8 2 C8 2.99 8 3.98 8 5 C8.66 5 9.32 5 10 5 C10.66 8.63 11.32 12.26 12 16 C11.34 16 10.68 16 10 16 C8.96210419 14.35666496 7.96432076 12.68756133 7 11 C6.34 10.34 5.68 9.68 5 9 C5 7.68 5 6.36 5 5 C4.360625 4.731875 3.72125 4.46375 3.0625 4.1875 C1 3 1 3 0 0 Z " fill="#01516A" transform="translate(294,138)"/>
<path d="M0 0 C1.8125 0.1875 1.8125 0.1875 4 1 C7 5.17857143 7 5.17857143 7 8 C7.99 8 8.98 8 10 8 C10 8.99 10 9.98 10 11 C11.65 11.33 13.3 11.66 15 12 C14.67 13.98 14.34 15.96 14 18 C10.66666667 14.66666667 7.33333333 11.33333333 4 8 C3.4225 7.505 2.845 7.01 2.25 6.5 C0.55604291 4.4672515 0.34892641 2.58205543 0 0 Z " fill="#499EBC" transform="translate(270,90)"/>
<path d="M0 0 C2.475 0.495 2.475 0.495 5 1 C5 1.99 5 2.98 5 4 C4.13197754 3.99476318 3.26395508 3.98952637 2.36962891 3.98413086 C-0.84700273 3.96710138 -4.06361141 3.95455592 -7.28027344 3.94506836 C-8.67318477 3.9400357 -10.0660908 3.93320902 -11.45898438 3.92456055 C-13.45961246 3.91244848 -15.46027888 3.90729588 -17.4609375 3.90234375 C-18.66540527 3.89710693 -19.86987305 3.89187012 -21.11083984 3.88647461 C-23.9413677 3.79912109 -23.9413677 3.79912109 -26 5 C-26 4.34 -26 3.68 -26 3 C-26.99 2.67 -27.98 2.34 -29 2 C-19.43 2 -9.86 2 0 2 C0 1.34 0 0.68 0 0 Z " fill="#2491BA" transform="translate(167,379)"/>
<path d="M0 0 C2.64 0 5.28 0 8 0 C7.67 1.32 7.34 2.64 7 4 C10.0745356 3.2236068 10.0745356 3.2236068 12 1 C12.99 2.65 13.98 4.3 15 6 C13.25 7.11328125 13.25 7.11328125 11 8 C9 7.35546875 9 7.35546875 7 6.1875 C4.32912465 4.65904985 2.02229906 3.6273969 -1 3 C-0.67 2.01 -0.34 1.02 0 0 Z " fill="#0F87B8" transform="translate(132,401)"/>
<path d="M0 0 C0.66 0.33 1.32 0.66 2 1 C-0.625 4.875 -0.625 4.875 -4 6 C-4 6.99 -4 7.98 -4 9 C-5.65 9.66 -7.3 10.32 -9 11 C-9 10.34 -9 9.68 -9 9 C-9.99 9 -10.98 9 -12 9 C-12 9.66 -12 10.32 -12 11 C-13.65 11 -15.3 11 -17 11 C-13.60123724 8.35465756 -10.02376093 6.03047558 -6.375 3.75 C-5.78976563 3.37359375 -5.20453125 2.9971875 -4.6015625 2.609375 C-3.10551189 1.67605902 -1.55562556 0.83022604 0 0 Z " fill="#6393A9" transform="translate(140,334)"/>
<path d="M0 0 C0.66 0.33 1.32 0.66 2 1 C-4.6 7.6 -11.2 14.2 -18 21 C-18.66 20.67 -19.32 20.34 -20 20 C-18.56354149 18.39490066 -17.12579294 16.79095576 -15.6875 15.1875 C-14.88699219 14.29417969 -14.08648437 13.40085938 -13.26171875 12.48046875 C-9.35573646 8.19670579 -9.35573646 8.19670579 -8 7 C-7.34 7 -6.68 7 -6 7 C-6 6.34 -6 5.68 -6 5 C-4.04072937 3.2856382 -2.04119788 1.61594832 0 0 Z " fill="#0D2023" transform="translate(141,118)"/>
<path d="M0 0 C0.66 0.33 1.32 0.66 2 1 C1.15867159 11.16236162 1.15867159 11.16236162 -1 15 C-1.99 15.33 -2.98 15.66 -4 16 C-4.625 14.125 -4.625 14.125 -5 12 C-4.34 11.34 -3.68 10.68 -3 10 C-2.35987856 7.83552102 -2.35987856 7.83552102 -1.9375 5.4375 C-1.09722222 1.09722222 -1.09722222 1.09722222 0 0 Z " fill="#9AAFBE" transform="translate(100,166)"/>
<path d="M0 0 C0.66 0.33 1.32 0.66 2 1 C1.01 2.485 1.01 2.485 0 4 C0 4.66 0 5.32 0 6 C-0.598125 6.268125 -1.19625 6.53625 -1.8125 6.8125 C-4.01075113 8.00583633 -5.28161826 9.21001902 -7 11 C-10.66666667 14 -10.66666667 14 -13 14 C-13 12.68 -13 11.36 -13 10 C-11.37501495 8.93360356 -9.69403834 7.95289657 -8 7 C-5.26350049 4.74403183 -2.62839541 2.38055664 0 0 Z " fill="#025B74" transform="translate(91,51)"/>
<path d="M0 0 C9.9 0 19.8 0 30 0 C30 0.33 30 0.66 30 1 C28.96359375 1.04898437 27.9271875 1.09796875 26.859375 1.1484375 C25.48955792 1.22349597 24.11976752 1.29904247 22.75 1.375 C22.06808594 1.4059375 21.38617188 1.436875 20.68359375 1.46875 C16.62720858 1.69743216 16.62720858 1.69743216 12.875 3.125 C10.0338442 4.45087271 8.17707922 3.53100071 5.25 2.625 C4.26515625 2.32851562 3.2803125 2.03203125 2.265625 1.7265625 C1.51796875 1.48679687 0.7703125 1.24703125 0 1 C0 0.67 0 0.34 0 0 Z " fill="#2B84A1" transform="translate(200,11)"/>
<path d="M0 0 C5.34844008 0.53484401 9.35796103 2.46690767 14 5 C13.34 5.66 12.68 6.32 12 7 C9.6171875 6.9765625 9.6171875 6.9765625 6.875 6.625 C5.96492188 6.51414062 5.05484375 6.40328125 4.1171875 6.2890625 C3.06917969 6.14597656 3.06917969 6.14597656 2 6 C1.34 4.02 0.68 2.04 0 0 Z " fill="#007DA4" transform="translate(84,364)"/>
<path d="M0 0 C-0.33 0.99 -0.66 1.98 -1 3 C-3.9140625 4.1328125 -3.9140625 4.1328125 -7.625 5.125 C-8.83414063 5.45757812 -10.04328125 5.79015625 -11.2890625 6.1328125 C-14.87536613 6.97087503 -18.3510471 7.54036326 -22 8 C-20.27520669 4.55041338 -16.16463471 4.06928291 -12.6875 2.875 C-11.52831055 2.45927734 -11.52831055 2.45927734 -10.34570312 2.03515625 C-6.58806398 0.72337509 -4.06386359 0 0 0 Z " fill="#3297BC" transform="translate(215,370)"/>
<path d="M0 0 C2.84043689 1.11588592 4.00910039 2.01213385 5.875 4.5 C8.41334546 7.48628877 10.30878196 7.90048824 14 9 C15.875 10.5 15.875 10.5 17 12 C17 12.66 17 13.32 17 14 C10.99679641 13.63616948 7.31244542 9.51529151 3.44140625 5.3046875 C0 1.26859065 0 1.26859065 0 0 Z " fill="#79B0C2" transform="translate(54,338)"/>
<path d="M0 0 C0.66 0 1.32 0 2 0 C2.33 1.32 2.66 2.64 3 4 C4.32 4 5.64 4 7 4 C7.99 7.3 8.98 10.6 10 14 C10.66 14 11.32 14 12 14 C13.66670026 17.52948291 14.13583456 19.28272326 13 23 C12.68546875 22.34773438 12.3709375 21.69546875 12.046875 21.0234375 C9.63940154 16.10697061 7.16031967 11.48561502 4 7 C0 1.1580756 0 1.1580756 0 0 Z " fill="#58A3BF" transform="translate(284,108)"/>
<path d="M0 0 C0.94875 0.04125 1.8975 0.0825 2.875 0.125 C3.205 1.775 3.535 3.425 3.875 5.125 C1.16620665 6.47939668 -1.13433268 6.19001451 -4.125 6.125 C-4.75 4.25 -4.75 4.25 -5.125 2.125 C-3.125 0.125 -3.125 0.125 0 0 Z " fill="#A0B4C1" transform="translate(300.125,392.875)"/>
<path d="M0 0 C-2.90600261 1.25664978 -4.79604584 2 -8 2 C-8 2.66 -8 3.32 -8 4 C-13.62870885 6.93161919 -16.77166905 7.2019586 -23 6 C-18.92617263 3.8617813 -14.77401271 2.60784686 -10.375 1.3125 C-9.59898437 1.07466797 -8.82296875 0.83683594 -8.0234375 0.59179688 C-2.24017687 -1.12008843 -2.24017687 -1.12008843 0 0 Z " fill="#005470" transform="translate(247,333)"/>
<path d="M0 0 C0 0.66 0 1.32 0 2 C-0.804375 2.474375 -1.60875 2.94875 -2.4375 3.4375 C-5.2918076 4.79983672 -5.2918076 4.79983672 -6 8 C-7.98 8.33 -9.96 8.66 -12 9 C-11.33333333 7.66666667 -10.66666667 6.33333333 -10 5 C-9.71125 4.29875 -9.4225 3.5975 -9.125 2.875 C-6.82897001 -0.95171665 -4.04067119 -1.44309685 0 0 Z " fill="#4A98BC" transform="translate(184,92)"/>
<path d="M0 0 C2.00720923 0.28674418 4.0085944 0.61866701 6 1 C5.67 3.31 5.34 5.62 5 8 C2 8 2 8 0 7 C-0.6875 4 -0.6875 4 -1 1 C-0.67 0.67 -0.34 0.34 0 0 Z " fill="#0C90B2" transform="translate(166,213)"/>
<path d="M0 0 C0.33 0.66 0.66 1.32 1 2 C-1.33537757 8.01853523 -4.33519748 11.96998935 -10 15 C-10.66 14.67 -11.32 14.34 -12 14 C-9.42314593 10.86598829 -6.86734179 7.86734179 -4 5 C-2.65263027 3.34466005 -1.31665664 1.67987227 0 0 Z " fill="#51A2BF" transform="translate(280,319)"/>
<path d="M0 0 C0.66 0.66 1.32 1.32 2 2 C1.31292969 2.06058594 0.62585938 2.12117188 -0.08203125 2.18359375 C-1.43361328 2.30927734 -1.43361328 2.30927734 -2.8125 2.4375 C-3.70582031 2.51871094 -4.59914062 2.59992188 -5.51953125 2.68359375 C-9.41828527 3.18091513 -11.39187291 4.14347985 -14 7 C-15.32 6.34 -16.64 5.68 -18 5 C-16.35 4.67 -14.7 4.34 -13 4 C-13 3.34 -13 2.68 -13 2 C-8.24692118 -0.8982188 -5.41522306 -1.35380577 0 0 Z " fill="#5695B0" transform="translate(160,328)"/>
<path d="M0 0 C2.54194161 0.14188985 5.08347993 0.28839155 7.625 0.4375 C8.69427734 0.49647461 8.69427734 0.49647461 9.78515625 0.55664062 C13.91803682 0.80309681 17.92269024 1.23470053 22 2 C22 2.33 22 2.66 22 3 C15.6 4.23076923 15.6 4.23076923 12.5625 3.0625 C12.046875 2.711875 11.53125 2.36125 11 2 C11 2.66 11 3.32 11 4 C7.1936543 3.32829194 3.64793184 2.27253436 0 1 C0 0.67 0 0.34 0 0 Z " fill="#4996B7" transform="translate(224,12)"/>
<path d="M0 0 C2.14576637 -0.02685938 4.29162645 -0.04633088 6.4375 -0.0625 C7.63246094 -0.07410156 8.82742187 -0.08570313 10.05859375 -0.09765625 C13 0 13 0 14 1 C16.01594582 1.23427778 18.038474 1.41336124 20.0625 1.5625 C21.16722656 1.64628906 22.27195313 1.73007812 23.41015625 1.81640625 C24.26480469 1.87699219 25.11945313 1.93757813 26 2 C26 2.33 26 2.66 26 3 C9.08348726 3.20059106 9.08348726 3.20059106 2 2 C1.34 1.34 0.68 0.68 0 0 Z " fill="#59A3C0" transform="translate(129,377)"/>
<path d="M0 0 C1.65 0 3.3 0 5 0 C1.12423543 5.25103587 -3.27744746 8.8295485 -9 12 C-9.66 12 -10.32 12 -11 12 C-9.84826645 9.53199953 -8.95216435 7.95216435 -7 6 C-5.01178687 5.60235737 -3.01055661 5.26224651 -1 5 C-0.67 3.35 -0.34 1.7 0 0 Z " fill="#037EA8" transform="translate(255,341)"/>
<path d="M0 0 C0.66 0.33 1.32 0.66 2 1 C0.64150752 2.49434173 -0.73759406 3.96996336 -2.125 5.4375 C-2.89070313 6.26121094 -3.65640625 7.08492187 -4.4453125 7.93359375 C-7.36728965 10.29708903 -9.30063155 10.70512281 -13 11 C-13 10.34 -13 9.68 -13 9 C-11.61924657 8.02336952 -10.23013679 7.05635143 -8.80078125 6.15234375 C-5.78264961 4.22100138 -2.90734615 2.09328923 0 0 Z " fill="#005266" transform="translate(106,40)"/>
<path d="M0 0 C0.80179688 0.05220703 1.60359375 0.10441406 2.4296875 0.15820312 C4.41179103 0.28798371 6.39344499 0.42459735 8.375 0.5625 C6.375 2.5625 6.375 2.5625 2.4609375 2.7578125 C0.89050649 2.74450376 -0.67986221 2.72063602 -2.25 2.6875 C-3.05179688 2.67847656 -3.85359375 2.66945313 -4.6796875 2.66015625 C-6.66158523 2.63656223 -8.64332981 2.60069065 -10.625 2.5625 C-10.625 1.9025 -10.625 1.2425 -10.625 0.5625 C-7.2967269 -1.10163655 -3.62766027 -0.25617406 0 0 Z " fill="#0A7BA1" transform="translate(215.625,93.4375)"/>
<path d="M0 0 C0.99 0 1.98 0 3 0 C3 0.66 3 1.32 3 2 C3.763125 1.79375 4.52625 1.5875 5.3125 1.375 C8 1 8 1 11 3 C11 3.66 11 4.32 11 5 C11.99 5.33 12.98 5.66 14 6 C14 6.33 14 6.66 14 7 C11.36 6.67 8.72 6.34 6 6 C6 5.34 6 4.68 6 4 C4.68 3.67 3.36 3.34 2 3 C2 2.34 2 1.68 2 1 C1.34 0.67 0.68 0.34 0 0 Z " fill="#9DBCC5" transform="translate(71,351)"/>
<path d="M0 0 C0 4.35765577 -0.97437924 8.13036587 -3 12 C-5.26384667 13.9016312 -7.24964349 14.80644906 -10 16 C-8.39270035 12.59963241 -6.46281671 9.47943574 -4.4375 6.3125 C-3.81746094 5.33925781 -3.19742187 4.36601562 -2.55859375 3.36328125 C-1 1 -1 1 0 0 Z " fill="#50A0BB" transform="translate(291,303)"/>
<path d="M0 0 C-0.99 1.485 -0.99 1.485 -2 3 C-2.33 3.99 -2.66 4.98 -3 6 C-5 6 -7 6 -9 6 C-9.99 6.495 -9.99 6.495 -11 7 C-11.66 6.34 -12.32 5.68 -13 5 C-11.02 4.34 -9.04 3.68 -7 3 C-7 2.34 -7 1.68 -7 1 C-3.375 -1.125 -3.375 -1.125 0 0 Z " fill="#66A5C1" transform="translate(247,356)"/>
<path d="M0 0 C2.475 0.99 2.475 0.99 5 2 C5 2.66 5 3.32 5 4 C5.7425 4.28875 6.485 4.5775 7.25 4.875 C9.56739797 5.82302644 11.77917115 6.84845911 14 8 C12.25 9.125 12.25 9.125 10 10 C6.5023324 8.90697888 4.53981576 6.53981576 2 4 C1.01 3.67 0.02 3.34 -1 3 C-0.67 2.01 -0.34 1.02 0 0 Z " fill="#03739F" transform="translate(66,351)"/>
<path d="M0 0 C0.66 0 1.32 0 2 0 C3.40234375 1.42578125 3.40234375 1.42578125 4.9375 3.3125 C6.86463171 5.66350211 8.81719293 7.88235135 11 10 C10.01 10.33 9.02 10.66 8 11 C4.8125 8.6875 4.8125 8.6875 2 6 C2 5.34 2 4.68 2 4 C1.34 4 0.68 4 0 4 C0 2.68 0 1.36 0 0 Z " fill="#0177A2" transform="translate(255,78)"/>
<path d="M0 0 C0.33 0.99 0.66 1.98 1 3 C-0.32 3.99 -1.64 4.98 -3 6 C-2.67 8.31 -2.34 10.62 -2 13 C-4.475 14.485 -4.475 14.485 -7 16 C-7 15.01 -7 14.02 -7 13 C-6.34 13 -5.68 13 -5 13 C-5.20625 12.29875 -5.4125 11.5975 -5.625 10.875 C-6.09130022 7.30003163 -5.51844475 5.25381018 -4 2 C-1.875 0.625 -1.875 0.625 0 0 Z " fill="#99B5C2" transform="translate(303,288)"/>
<path d="M0 0 C1.51171875 1.18359375 1.51171875 1.18359375 3 3 C3.14453125 5.41015625 3.14453125 5.41015625 2.8125 8.0625 C2.71582031 8.94035156 2.61914062 9.81820312 2.51953125 10.72265625 C2 13 2 13 0 15 C-1.09651823 11.58860997 -0.94215473 8.79344419 -0.5625 5.25 C-0.46066406 4.26515625 -0.35882813 3.2803125 -0.25390625 2.265625 C-0.17011719 1.51796875 -0.08632812 0.7703125 0 0 Z " fill="#2F8EB0" transform="translate(173,220)"/>
<path d="M0 0 C2.31 0.66 4.62 1.32 7 2 C7 2.99 7 3.98 7 5 C8.32 5.66 9.64 6.32 11 7 C10.01 7.99 9.02 8.98 8 10 C8 9.01 8 8.02 8 7 C6.68 6.67 5.36 6.34 4 6 C4 5.34 4 4.68 4 4 C2.68 3.34 1.36 2.68 0 2 C0 1.34 0 0.68 0 0 Z " fill="#6CAAC1" transform="translate(266,84)"/>
<path d="M0 0 C2.64 0 5.28 0 8 0 C8.33 0.66 8.66 1.32 9 2 C11.52733235 2.65555119 11.52733235 2.65555119 14 3 C10.77557555 4.97007169 8.97573869 5.16624654 5.3125 4.3125 C4.52488281 4.14363281 3.73726562 3.97476563 2.92578125 3.80078125 C2.29027344 3.53652344 1.65476563 3.27226563 1 3 C0.67 2.01 0.34 1.02 0 0 Z " fill="#4B9DBF" transform="translate(164,44)"/>
<path d="M0 0 C0 0.33 0 0.66 0 1 C-3.41481264 1.53350857 -6.83203896 2.04958186 -10.25 2.5625 C-11.70212891 2.78969727 -11.70212891 2.78969727 -13.18359375 3.02148438 C-14.11816406 3.16005859 -15.05273438 3.29863281 -16.015625 3.44140625 C-16.87446289 3.57232666 -17.73330078 3.70324707 -18.61816406 3.83813477 C-21.01042114 4.0007082 -22.72802578 3.71976511 -25 3 C-16.55762426 0.10547117 -8.88512349 -0.35021655 0 0 Z " fill="#002F3B" transform="translate(191,11)"/>
<path d="M0 0 C-1.32 0.33 -2.64 0.66 -4 1 C-4 1.66 -4 2.32 -4 3 C-5.6875 4.6875 -5.6875 4.6875 -8 6 C-10.75 5.6875 -10.75 5.6875 -13 5 C-13 5.66 -13 6.32 -13 7 C-14.32 6.67 -15.64 6.34 -17 6 C-10.25 3 -10.25 3 -8 3 C-8 2.34 -8 1.68 -8 1 C-4.93251126 -0.86240388 -3.40254489 -1.2151946 0 0 Z " fill="#619FBF" transform="translate(103,54)"/>
<path d="M0 0 C0.74507812 0.01353516 1.49015625 0.02707031 2.2578125 0.04101562 C4.08885416 0.07622796 5.91952169 0.13003149 7.75 0.1875 C7.75 0.5175 7.75 0.8475 7.75 1.1875 C-5.8832574 3.48362756 -5.8832574 3.48362756 -12.25 3.1875 C-8.60142562 -0.47067589 -4.85390995 -0.16722835 0 0 Z " fill="#5D94AD" transform="translate(234.25,420.8125)"/>
<path d="M0 0 C0 0.66 0 1.32 0 2 C-0.99 2.33 -1.98 2.66 -3 3 C-4.22520264 6.00847418 -4.22520264 6.00847418 -5 9 C-8.02485781 8.4118332 -11.01386614 7.75929472 -14 7 C-13.38511719 6.66226562 -12.77023438 6.32453125 -12.13671875 5.9765625 C-11.32847656 5.53054688 -10.52023438 5.08453125 -9.6875 4.625 C-8.88699219 4.18414062 -8.08648437 3.74328125 -7.26171875 3.2890625 C-1.49090909 0 -1.49090909 0 0 0 Z " fill="#005978" transform="translate(265,323)"/>
<path d="M0 0 C3.0625 0.1875 3.0625 0.1875 5.0625 2.1875 C1.55062804 4.59564077 -0.66406908 5.55379408 -4.9375 5.1875 C-3.82120474 0.24390669 -3.82120474 0.24390669 0 0 Z " fill="#1E93BA" transform="translate(209.9375,363.8125)"/>
<path d="M0 0 C11.52164009 -0.18451025 11.52164009 -0.18451025 17 1 C15.625 2.5 15.625 2.5 14 4 C13.34 4 12.68 4 12 4 C12 3.34 12 2.68 12 2 C9.03 1.505 9.03 1.505 6 1 C5.67 1.99 5.34 2.98 5 4 C4.67 3.34 4.34 2.68 4 2 C1.98330173 0.86649466 1.98330173 0.86649466 0 0 Z " fill="#3C92B6" transform="translate(173,337)"/>
<path d="M0 0 C0.33 0.66 0.66 1.32 1 2 C0.01 3.485 0.01 3.485 -1 5 C-1.99 5 -2.98 5 -4 5 C-4.20625 5.53625 -4.4125 6.0725 -4.625 6.625 C-6.57996944 10.0017654 -9.18223695 12.30474839 -12 15 C-12.66 14.67 -13.32 14.34 -14 14 C-9.33333333 9.33333333 -4.66666667 4.66666667 0 0 Z " fill="#003E4C" transform="translate(292,299)"/>
<path d="M0 0 C0.99 0 1.98 0 3 0 C3.33 0.99 3.66 1.98 4 3 C3.00390625 4.82421875 3.00390625 4.82421875 1.5625 6.6875 C1.08941406 7.31011719 0.61632812 7.93273437 0.12890625 8.57421875 C-0.24363281 9.04472656 -0.61617188 9.51523438 -1 10 C-2.1875 8.375 -2.1875 8.375 -3 6 C-1.625 2.75 -1.625 2.75 0 0 Z " fill="#84A4B9" transform="translate(121,131)"/>
<path d="M0 0 C2 1.125 2 1.125 4 3 C4.25 6.1875 4.25 6.1875 4 9 C-0.74164134 6.56838906 -0.74164134 6.56838906 -1.9375 3.9375 C-1.958125 3.298125 -1.97875 2.65875 -2 2 C-1.34 1.34 -0.68 0.68 0 0 Z " fill="#1991BA" transform="translate(216,57)"/>
<path d="M0 0 C0.99 0.99 1.98 1.98 3 3 C-1.29 2.67 -5.58 2.34 -10 2 C-9.67 1.01 -9.34 0.02 -9 -1 C-5.17456525 -2.27514492 -3.66576992 -1.52740413 0 0 Z M-1 3 C1 4 1 4 1 4 Z " fill="#80A5B8" transform="translate(295,32)"/>
<path d="M0 0 C1.32 0.33 2.64 0.66 4 1 C3 4 3 4 -0.375 5.75 C-4 7 -4 7 -7 6 C-6.401875 5.7525 -5.80375 5.505 -5.1875 5.25 C-2.71352479 3.83629988 -1.56629745 2.34944617 0 0 Z " fill="#6EA6BD" transform="translate(142,334)"/>
<path d="M0 0 C2.375 0.9375 2.375 0.9375 3.6875 3 C4.0278125 3.9590625 4.0278125 3.9590625 4.375 4.9375 C3.715 4.9375 3.055 4.9375 2.375 4.9375 C2.045 5.5975 1.715 6.2575 1.375 6.9375 C-0.275 5.2875 -1.925 3.6375 -3.625 1.9375 C-3.625 2.5975 -3.625 3.2575 -3.625 3.9375 C-4.615 3.6075 -5.605 3.2775 -6.625 2.9375 C-4.29597204 0.78099263 -3.23439697 -0.07700945 0 0 Z " fill="#9FB3C0" transform="translate(314.625,45.0625)"/>
<path d="M0 0 C-0.5625 1.875 -0.5625 1.875 -2 4 C-5.91324696 5.52181826 -8.98417068 6.60633173 -13 5 C-12.01 4.67 -11.02 4.34 -10 4 C-9.67 3.34 -9.34 2.68 -9 2 C-5.65489648 0.37265234 -3.81164166 0 0 0 Z " fill="#005A75" transform="translate(142,23)"/>
<path d="M0 0 C1.6065676 0.25620684 3.2102483 0.53055871 4.8125 0.8125 C6.15248047 1.03873047 6.15248047 1.03873047 7.51953125 1.26953125 C10.18321256 2.05395393 11.25690322 2.88627799 13 5 C7.25 6.125 7.25 6.125 5 5 C5 4.34 5 3.68 5 3 C2.525 2.01 2.525 2.01 0 1 C0 0.67 0 0.34 0 0 Z " fill="#648EA2" transform="translate(265,20)"/>
<path d="M0 0 C-5.44535609 3.38495108 -10.67721029 3.67373505 -17 4 C-14.23719462 2.15812975 -12.19292174 1.27751723 -9.0625 0.3125 C-7.78052734 -0.09548828 -7.78052734 -0.09548828 -6.47265625 -0.51171875 C-3.89489426 -1.02075548 -2.45550663 -0.84888744 0 0 Z " fill="#00698B" transform="translate(159,19)"/>
<path d="M0 0 C-0.33 0.99 -0.66 1.98 -1 3 C-2.27875 3.144375 -3.5575 3.28875 -4.875 3.4375 C-7.25692894 3.70642746 -8.84452691 3.92226346 -11 5 C-11 4.01 -11 3.02 -11 2 C-9.54494642 1.47007308 -8.08581873 0.9513211 -6.625 0.4375 C-5.81289062 0.14746094 -5.00078125 -0.14257812 -4.1640625 -0.44140625 C-2 -1 -2 -1 0 0 Z " fill="#0082AD" transform="translate(246,336)"/>
<path d="M0 0 C7.92 0 15.84 0 24 0 C24 0.33 24 0.66 24 1 C23.34926514 1.02505615 22.69853027 1.0501123 22.02807617 1.07592773 C19.08101954 1.19193702 16.1342787 1.31464115 13.1875 1.4375 C11.65125977 1.49647461 11.65125977 1.49647461 10.08398438 1.55664062 C9.10107422 1.59853516 8.11816406 1.64042969 7.10546875 1.68359375 C6.19949951 1.72025146 5.29353027 1.75690918 4.36010742 1.79467773 C1.84951218 1.9208205 1.84951218 1.9208205 -1 3 C-0.67 2.01 -0.34 1.02 0 0 Z " fill="#8D9FA9" transform="translate(311,269)"/>
<path d="M0 0 C2.31 0.66 4.62 1.32 7 2 C5.0373772 4.04795423 3.5722693 4.94976638 0.73046875 5.19921875 C-1.51954383 5.18858877 -3.75385562 5.12958525 -6 5 C-6 4.67 -6 4.34 -6 4 C-4.35 4 -2.7 4 -1 4 C-0.67 2.68 -0.34 1.36 0 0 Z " fill="#5E929F" transform="translate(206,240)"/>
<path d="M0 0 C4.7517398 0.43197635 6.92000054 1.32769295 10 5 C7 5 7 5 4 4 C3.01 4 2.02 4 1 4 C0.34 3.34 -0.32 2.68 -1 2 C-0.67 1.34 -0.34 0.68 0 0 Z " fill="#138EB7" transform="translate(213,52)"/>
<path d="M0 0 C2.97 0.495 2.97 0.495 6 1 C3.75 3.5625 3.75 3.5625 1 6 C-1.3125 5.8125 -1.3125 5.8125 -3 5 C-2.01 3.35 -1.02 1.7 0 0 Z " fill="#9CAEBB" transform="translate(310,388)"/>
<path d="M0 0 C2.31 0 4.62 0 7 0 C6.67 1.32 6.34 2.64 6 4 C5.34 3.67 4.68 3.34 4 3 C3.67 4.98 3.34 6.96 3 9 C2.67 9 2.34 9 2 9 C1.34 6.03 0.68 3.06 0 0 Z " fill="#1C92B9" transform="translate(164,231)"/>
<path d="M0 0 C2.64 0.33 5.28 0.66 8 1 C8.33 3.31 8.66 5.62 9 8 C7.68388323 7.04663979 6.37221039 6.08714226 5.0625 5.125 C4.33160156 4.59132812 3.60070312 4.05765625 2.84765625 3.5078125 C1 2 1 2 0 0 Z " fill="#006488" transform="translate(282,125)"/>
<path d="M0 0 C6.6 0 13.2 0 20 0 C19.01 1.32 18.02 2.64 17 4 C16.67 3.34 16.34 2.68 16 2 C13.47266765 1.34444881 13.47266765 1.34444881 11 1 C10.67 1.66 10.34 2.32 10 3 C10 2.34 10 1.68 10 1 C6.7 1 3.4 1 0 1 C0 0.67 0 0.34 0 0 Z " fill="#0781A7" transform="translate(199,340)"/>
<path d="M0 0 C2 3 2 3 3 6 C2.01 6.66 1.02 7.32 0 8 C-1.32 6.35 -2.64 4.7 -4 3 C-2.68 2.01 -1.36 1.02 0 0 Z " fill="#5FA7C0" transform="translate(263,76)"/>
<path d="M0 0 C0 0.66 0 1.32 0 2 C-3.66987221 3.22329074 -6.33967822 2.88021006 -10.1875 2.5625 C-11.45980469 2.46066406 -12.73210937 2.35882813 -14.04296875 2.25390625 C-15.01878906 2.17011719 -15.99460938 2.08632812 -17 2 C-17 1.67 -17 1.34 -17 1 C-11.27959989 0.1679418 -5.77759884 -0.12036664 0 0 Z " fill="#0B7A9C" transform="translate(200,11)"/>
<path d="M0 0 C0.66 1.32 1.32 2.64 2 4 C0.35 5.65 -1.3 7.3 -3 9 C-3.75 7.3125 -3.75 7.3125 -4 5 C-2.0625 2.25 -2.0625 2.25 0 0 Z " fill="#458FA9" transform="translate(193,212)"/>
<path d="M0 0 C1.45880109 0.14107747 2.91703551 0.28802415 4.375 0.4375 C5.59316406 0.55931641 5.59316406 0.55931641 6.8359375 0.68359375 C9 1 9 1 11 2 C11 2.66 11 3.32 11 4 C7.06225823 4.36630156 5.43460229 4.30233203 2.125 2 C1.42375 1.34 0.7225 0.68 0 0 Z " fill="#66ACC1" transform="translate(102,369)"/>
<path d="M0 0 C0.33 0.66 0.66 1.32 1 2 C-0.38542316 5.62848922 -1.84351662 8.76527494 -4 12 C-4.66 12 -5.32 12 -6 12 C-4.68139111 7.38486888 -2.78644563 3.90102388 0 0 Z " fill="#5C93A4" transform="translate(298,291)"/>
<path d="M0 0 C0 1.98 0 3.96 0 6 C-2.31 5.67 -4.62 5.34 -7 5 C-2.25 0 -2.25 0 0 0 Z " fill="#92AAB2" transform="translate(245,209)"/>
<path d="M0 0 C0.66 0.99 1.32 1.98 2 3 C0.35 5.97 -1.3 8.94 -3 12 C-3.33 12 -3.66 12 -4 12 C-4.61528766 6.92387682 -2.61658349 4.17017994 0 0 Z " fill="#82A0B4" transform="translate(114,143)"/>
<path d="M0 0 C0.99 0.66 1.98 1.32 3 2 C-2.445 4.475 -2.445 4.475 -8 7 C-7.67 5.68 -7.34 4.36 -7 3 C-3.625 1.125 -3.625 1.125 0 0 Z " fill="#5596B0" transform="translate(164,102)"/>
<path d="M0 0 C0.66 0.33 1.32 0.66 2 1 C0.71520959 2.50589388 -0.57804082 4.00457375 -1.875 5.5 C-2.95394531 6.75296875 -2.95394531 6.75296875 -4.0546875 8.03125 C-4.69664063 8.6809375 -5.33859375 9.330625 -6 10 C-6.66 10 -7.32 10 -8 10 C-8 8.68 -8 7.36 -8 6 C-5.6875 4.4375 -5.6875 4.4375 -3 3 C-1.24850835 1.41754725 -1.24850835 1.41754725 0 0 Z " fill="#0A404D" transform="translate(86,55)"/>
<path d="M0 0 C3.63 0 7.26 0 11 0 C11.33 0.99 11.66 1.98 12 3 C10.56163249 2.88541307 9.12429034 2.75790884 7.6875 2.625 C6.88699219 2.55539062 6.08648437 2.48578125 5.26171875 2.4140625 C3 2 3 2 0 0 Z " fill="#268CAD" transform="translate(159,417)"/>
<path d="M0 0 C-4.62197306 2.21854707 -7.76824163 3.38281159 -13 3 C-9.46107841 -0.25580786 -4.56810887 -2.28405443 0 0 Z " fill="#75B1C3" transform="translate(120,50)"/>
<path d="M0 0 C0.66 0.33 1.32 0.66 2 1 C1.67 2.65 1.34 4.3 1 6 C0.34 6 -0.32 6 -1 6 C-1 5.34 -1 4.68 -1 4 C-2.98 4.33 -4.96 4.66 -7 5 C-6.67 4.34 -6.34 3.68 -6 3 C-5.01 3 -4.02 3 -3 3 C-3 2.34 -3 1.68 -3 1 C-2.01 0.67 -1.02 0.34 0 0 Z " fill="#005D7C" transform="translate(124,30)"/>
<path d="M0 0 C0.33 0.99 0.66 1.98 1 3 C-2.3 3 -5.6 3 -9 3 C-4.5 -0.375 -4.5 -0.375 0 0 Z " fill="#73A1BE" transform="translate(244,418)"/>
<path d="M0 0 C3.16115776 1.36983503 3.9927092 1.9890638 6 5 C5.625 7.1875 5.625 7.1875 5 9 C4.16094435 7.87926138 3.32892169 6.75325453 2.5 5.625 C2.0359375 4.99851562 1.571875 4.37203125 1.09375 3.7265625 C0 2 0 2 0 0 Z " fill="#055F7A" transform="translate(52,339)"/>
<path d="M0 0 C5.53846154 0.49230769 5.53846154 0.49230769 7.875 3.0625 C8.431875 4.0215625 8.431875 4.0215625 9 5 C6.23723823 4.47731534 3.6739124 3.89130413 1 3 C0.67 2.01 0.34 1.02 0 0 Z " fill="#2191BA" transform="translate(222,56)"/>
<path d="M0 0 C3.3 0.33 6.6 0.66 10 1 C10 1.66 10 2.32 10 3 C10.99 3.33 11.98 3.66 13 4 C10.21078018 5.39460991 8.87922897 4.58060045 5.9375 3.6875 C4.58978516 3.29111328 4.58978516 3.29111328 3.21484375 2.88671875 C1 2 1 2 0 0 Z " fill="#01718C" transform="translate(137,410)"/>
<path d="M0 0 C0.66 0.33 1.32 0.66 2 1 C-0.9905167 4.33557632 -3.93184627 6.15083921 -8 8 C-7.9375 6.25 -7.9375 6.25 -7 4 C-4.74876994 2.27481113 -2.59865097 1.23093993 0 0 Z " fill="#56A2C0" transform="translate(232,362)"/>
<path d="M0 0 C4 4.75 4 4.75 4 7 C3.01 7 2.02 7 1 7 C0.67 6.34 0.34 5.68 0 5 C-0.99 5.495 -0.99 5.495 -2 6 C-2.33 5.01 -2.66 4.02 -3 3 C-2.01 2.01 -1.02 1.02 0 0 Z " fill="#789AA9" transform="translate(111,282)"/>
<path d="M0 0 C1.98 1.65 3.96 3.3 6 5 C5.67 5.99 5.34 6.98 5 8 C3.0625 7.375 3.0625 7.375 1 6 C0.25 2.875 0.25 2.875 0 0 Z " fill="#178FBA" transform="translate(165,214)"/>
<path d="M0 0 C0 0.66 0 1.32 0 2 C-2.97 2.66 -5.94 3.32 -9 4 C-8.67 3.01 -8.34 2.02 -8 1 C-5.23735711 0.40267181 -2.83967231 0 0 0 Z " fill="#0075A1" transform="translate(123,44)"/>
<path d="M0 0 C3.66881155 0.70554068 6.70450534 2.27735506 10 4 C7 6 7 6 5 6 C5 5.01 5 4.02 5 3 C3.35 2.67 1.7 2.34 0 2 C0 1.34 0 0.68 0 0 Z " fill="#6B96A5" transform="translate(279,25)"/>
<path d="M0 0 C0.66 0.33 1.32 0.66 2 1 C2 1.99 2 2.98 2 4 C2.66 4.66 3.32 5.32 4 6 C-1.75 5.25 -1.75 5.25 -4 3 C-3.01 3 -2.02 3 -1 3 C-0.67 2.01 -0.34 1.02 0 0 Z " fill="#006779" transform="translate(133,404)"/>
<path d="M0 0 C2.31 0.33 4.62 0.66 7 1 C7.33 1.99 7.66 2.98 8 4 C5 5 5 5 2.875 4.25 C1 3 1 3 0 0 Z " fill="#007A9D" transform="translate(90,380)"/>
<path d="M0 0 C3.78786597 0.5260925 6.17152224 1.38103911 9 4 C9 4.66 9 5.32 9 6 C5.70195229 5.43137108 4.19980011 4.49977286 2 2 C1.34 1.34 0.68 0.68 0 0 Z " fill="#0788A9" transform="translate(100,370)"/>
<path d="M0 0 C4.7517398 0.43197635 6.92000054 1.32769295 10 5 C2.42857143 3.14285714 2.42857143 3.14285714 0 0 Z " fill="#2A96B5" transform="translate(80,360)"/>
<path d="M0 0 C0 0.99 0 1.98 0 3 C-4.455 4.485 -4.455 4.485 -9 6 C-3.2 0 -3.2 0 0 0 Z " fill="#3E9ABD" transform="translate(249,351)"/>
<path d="M0 0 C1.32 0 2.64 0 4 0 C5.0625 1.8125 5.0625 1.8125 6 4 C5.67 4.99 5.34 5.98 5 7 C0 1.125 0 1.125 0 0 Z " fill="#00678C" transform="translate(61,352)"/>
<path d="M0 0 C0.33 0.66 0.66 1.32 1 2 C0.67 2.99 0.34 3.98 0 5 C-1.65 5.33 -3.3 5.66 -5 6 C-4.1875 3.5625 -4.1875 3.5625 -3 1 C-2.01 0.67 -1.02 0.34 0 0 Z " fill="#66A3C0" transform="translate(157,100)"/>
<path d="M0 0 C2.02045442 0.60183749 4.02111039 1.27306096 6 2 C6.33 2.66 6.66 3.32 7 4 C4.39417629 4.93065133 3.35801776 5.14917407 0.75 4.0625 C0.1725 3.711875 -0.405 3.36125 -1 3 C-0.67 2.01 -0.34 1.02 0 0 Z " fill="#077EA9" transform="translate(73,356)"/>
<path d="M0 0 C0.33 0.66 0.66 1.32 1 2 C-0.65 3.32 -2.3 4.64 -4 6 C-5.32 5.34 -6.64 4.68 -8 4 C-6.35 3.67 -4.7 3.34 -3 3 C-3 2.34 -3 1.68 -3 1 C-2.01 0.67 -1.02 0.34 0 0 Z " fill="#4E8B96" transform="translate(150,329)"/>
<path d="M0 0 C0.33 0 0.66 0 1 0 C0.67 4.29 0.34 8.58 0 13 C-0.33 13 -0.66 13 -1 13 C-2.42857143 4.57142857 -2.42857143 4.57142857 0 0 Z " fill="#7099AF" transform="translate(123,309)"/>
<path d="M0 0 C0.88672454 2.4828287 1.14518218 3.62029277 0.1875 6.125 C-1 8 -1 8 -3 10 C-2.69201674 8.51988629 -2.378482 7.04092675 -2.0625 5.5625 C-1.88847656 4.73878906 -1.71445313 3.91507813 -1.53515625 3.06640625 C-1 1 -1 1 0 0 Z " fill="#8499A4" transform="translate(237,214)"/>
<path d="M0 0 C3.3 0 6.6 0 10 0 C10 0.33 10 0.66 10 1 C3.71428571 3.42857143 3.71428571 3.42857143 0 2 C0 1.34 0 0.68 0 0 Z " fill="#0084A9" transform="translate(154,209)"/>
<path d="M0 0 C0 0.66 0 1.32 0 2 C-1.96147874 3.38938077 -3.96166576 4.7260411 -6 6 C-6.33 5.01 -6.66 4.02 -7 3 C-4.49955934 -0.00052879 -4.2621484 0 0 0 Z " fill="#719CB2" transform="translate(135,123)"/>
<path d="M0 0 C0.99 0.99 1.98 1.98 3 3 C2.34 4.65 1.68 6.3 1 8 C-1 5 -1 5 -0.625 2.3125 C-0.41875 1.549375 -0.2125 0.78625 0 0 Z " fill="#6FA3BA" transform="translate(140,111)"/>
<path d="M0 0 C-2.64458379 1.32229189 -4.67761301 1.09677194 -7.625 1.0625 C-8.62789062 1.05347656 -9.63078125 1.04445313 -10.6640625 1.03515625 C-11.43492187 1.02355469 -12.20578125 1.01195313 -13 1 C-12.67 0.34 -12.34 -0.32 -12 -1 C-9.78515625 -1.484375 -9.78515625 -1.484375 -7.0625 -1.75 C-6.16660156 -1.84796875 -5.27070313 -1.9459375 -4.34765625 -2.046875 C-2 -2 -2 -2 0 0 Z " fill="#3494BA" transform="translate(193,95)"/>
<path d="M0 0 C0.99 0.66 1.98 1.32 3 2 C1.75579353 2.5345256 0.50429064 3.05208611 -0.75 3.5625 C-1.44609375 3.85253906 -2.1421875 4.14257812 -2.859375 4.44140625 C-5.30012784 5.07831803 -6.6403655 4.80248831 -9 4 C-7.57086153 3.27494442 -6.13129342 2.57041565 -4.6875 1.875 C-3.88699219 1.48054688 -3.08648437 1.08609375 -2.26171875 0.6796875 C-1.51535156 0.45539062 -0.76898438 0.23109375 0 0 Z " fill="#1A8CB3" transform="translate(126,43)"/>
<path d="M0 0 C2.875 -0.125 2.875 -0.125 6 0 C6.66 0.66 7.32 1.32 8 2 C7 3 7 3 4.5625 3.25 C3.2940625 3.12625 3.2940625 3.12625 2 3 C1.34 2.01 0.68 1.02 0 0 Z " fill="#0C87B8" transform="translate(167,19)"/>
<path d="M0 0 C1.98 0 3.96 0 6 0 C6 0.66 6 1.32 6 2 C7.32 2 8.64 2 10 2 C10 2.66 10 3.32 10 4 C5.78087253 3.5205537 3.20336822 2.83374881 0 0 Z " fill="#65A1BA" transform="translate(242,15)"/>
<path d="M0 0 C4.8333472 -0.08333357 9.23692563 0.04738513 14 1 C14 1.33 14 1.66 14 2 C8.51053913 3.12029814 5.16569441 2.79217969 0 1 C0 0.67 0 0.34 0 0 Z " fill="#458EAC" transform="translate(232,13)"/>
<path d="M0 0 C3.3 0 6.6 0 10 0 C8.68 0.99 7.36 1.98 6 3 C2.75 2.1875 2.75 2.1875 0 1 C0 0.67 0 0.34 0 0 Z " fill="#2A96BA" transform="translate(205,12)"/>
<path d="M0 0 C0 0.99 0 1.98 0 3 C-2.97 2.505 -2.97 2.505 -6 2 C-6 1.34 -6 0.68 -6 0 C-3 -1 -3 -1 0 0 Z " fill="#0084AD" transform="translate(118,394)"/>
<path d="M0 0 C1.65 0 3.3 0 5 0 C5 0.66 5 1.32 5 2 C5.66 2 6.32 2 7 2 C7.33 2.99 7.66 3.98 8 5 C6.68 4.67 5.36 4.34 4 4 C4 3.34 4 2.68 4 2 C2.68 1.67 1.36 1.34 0 1 C0 0.67 0 0.34 0 0 Z " fill="#006789" transform="translate(93,384)"/>
<path d="M0 0 C3.73639216 1.24546405 4.18756513 2.63404953 6 6 C4.68 6.33 3.36 6.66 2 7 C1.34 4.69 0.68 2.38 0 0 Z " fill="#107BA0" transform="translate(56,342)"/>
<path d="M0 0 C0.33 0.99 0.66 1.98 1 3 C2.98 2.67 4.96 2.34 7 2 C6.34 3.32 5.68 4.64 5 6 C4.01 6 3.02 6 2 6 C2 5.34 2 4.68 2 4 C1.34 4 0.68 4 0 4 C0 2.68 0 1.36 0 0 Z " fill="#7B9EB7" transform="translate(118,343)"/>
<path d="M0 0 C0.66 0.33 1.32 0.66 2 1 C1.01 2.98 0.02 4.96 -1 7 C-2.32 6.67 -3.64 6.34 -5 6 C-3.35 4.02 -1.7 2.04 0 0 Z " fill="#016784" transform="translate(288,304)"/>
<path d="M0 0 C1.32 0 2.64 0 4 0 C3.67 0.99 3.34 1.98 3 3 C0.4375 4.1875 0.4375 4.1875 -2 5 C-1.125 1.125 -1.125 1.125 0 0 Z " fill="#00769B" transform="translate(127,29)"/>
</svg>
